<?xml version="1.0" encoding="UTF-8"?><svg id="Layer_3" xmlns="http://www.w3.org/2000/svg" viewBox="0 0 585.72 582.3"><defs><style>.cls-1{fill:#0071bc;}</style></defs><path class="cls-1" d="m84.97,205.82c0-6.52-.22-13.05.07-19.56.23-5.15.85-10.31,1.71-15.4.84-4.99,2.13-9.91,3.37-14.82,1.09-4.29,2.22-8.58,3.66-12.76,1.24-3.61,3.05-7.02,4.41-10.6.86-2.27,1.18-4.75,2.07-7,1.14-2.87,2.54-5.64,3.96-8.38,1.43-2.76,3.06-5.42,4.55-8.16,1.15-2.12,2.11-4.35,3.36-6.41,2.78-4.61,5.53-9.26,8.6-13.68,2.63-3.79,5.5-7.45,8.58-10.88,6.68-7.46,13.47-14.83,20.4-22.06,3.36-3.5,6.93-6.86,10.74-9.85,5.42-4.26,10.97-8.4,16.79-12.07,6.22-3.92,12.75-7.37,19.29-10.76,4.75-2.46,9.68-4.59,14.6-6.71,5.11-2.2,10.26-4.34,15.48-6.26,2.79-1.02,5.78-1.45,8.66-2.26,3.27-.92,6.51-1.96,9.77-2.96.17-.05.33-.15.51-.18,4.22-.62,8.44-1.29,12.68-1.84,7.81-1.01,15.61-2.13,23.44-2.83,5.13-.46,10.32-.5,15.47-.28,7.48.32,14.94.97,22.4,1.64,3.82.35,7.64.89,11.4,1.68,3.33.7,6.55,1.94,9.85,2.81,2.81.74,5.68,1.24,8.49,1.96,2.91.74,5.84,1.47,8.68,2.43,4.11,1.4,8.18,2.94,12.21,4.56,3.46,1.39,6.83,3.02,10.27,4.47,1.97.83,4.1,1.34,5.98,2.33,3.16,1.67,6.17,3.62,9.26,5.43,6.63,3.89,13.11,7.96,19.33,12.53,7.13,5.24,13.54,11.3,20.4,16.76,7.34,5.84,12.29,13.68,19.09,19.91,3.36,3.09,5.55,7.5,8.11,11.4,2.73,4.16,5.29,8.43,7.91,12.66,2.68,4.33,5.5,8.58,7.97,13.02,1.53,2.76,2.5,5.83,3.74,8.75,1.31,3.08,2.75,6.11,3.93,9.25,1.64,4.39,3.07,8.87,4.62,13.3.97,2.79,1.98,5.57,2.97,8.36.06.17.16.33.18.51.62,3.75,1.17,7.52,1.88,11.26.93,4.96,1.99,9.91,2.99,14.86.11.53.19,1.07.19,1.61,0,16.02.19,32.05-.17,48.06-.1,4.59-1.82,9.14-2.8,13.71-.08.35-.12.71-.18,1.07-.62,3.93-1.05,7.89-1.92,11.76-.59,2.61-1.86,5.05-2.7,7.61-.8,2.45-1.25,5.03-2.18,7.42-2.03,5.25-4.25,10.42-6.42,15.62-1.23,2.94-2.39,5.92-3.76,8.79-1.29,2.71-2.76,5.33-4.24,7.95-1.99,3.51-3.98,7.02-6.11,10.45-1.44,2.31-3.09,4.49-4.69,6.7-2.33,3.24-4.66,6.49-7.06,9.67-1.6,2.12-3.25,4.2-5.01,6.18-3.91,4.41-7.75,8.91-11.92,13.07-4.09,4.09-8.44,7.95-12.9,11.63-4.4,3.64-9.27,6.72-13.6,10.45-4.12,3.55-8.9,5.88-13.54,8.54-3.34,1.91-6.33,4.45-9.71,6.26-3.73,2-7.7,3.56-11.61,5.21-5.19,2.2-10.4,4.37-15.65,6.41-2.53.98-5.22,1.55-7.8,2.42-2.65.88-5.23,1.97-7.89,2.82-2.26.72-4.57,1.39-6.9,1.8-4.3.75-8.64,1.31-12.97,1.94-7.01,1.01-14,2.2-21.04,2.94-4.67.49-9.4.35-14.11.41-3.26.04-6.53.1-9.78-.15-6.47-.49-12.92-1.13-19.37-1.83-3.29-.36-6.59-.85-9.82-1.55-3.35-.73-6.63-1.79-9.94-2.7-.52-.14-1.05-.32-1.58-.34-4.02-.16-7.63-1.67-11.32-3.12-3.68-1.45-7.57-2.35-11.31-3.68-3.49-1.24-6.92-2.67-10.34-4.1-3.54-1.48-7.08-2.98-10.56-4.62-2.25-1.06-4.4-2.35-6.56-3.62-4.59-2.69-9.33-5.18-13.68-8.22-7.01-4.88-14.02-9.83-20.55-15.32-7.22-6.07-14.16-12.5-20.08-19.93-1.9-2.39-4.45-4.27-6.38-6.64-2.91-3.59-5.57-7.39-8.29-11.13-2.86-3.95-5.91-7.79-8.42-11.95-2.63-4.37-4.7-9.09-7.06-13.63-2.13-4.08-4.39-8.09-6.46-12.2-.86-1.71-1.34-3.61-1.99-5.41-1.58-4.34-3.27-8.65-4.71-13.04-.88-2.68-1.32-5.49-2.03-8.23-.8-3.12-1.68-6.23-2.53-9.34-.07-.25-.32-.47-.37-.72-.8-4.19-1.49-8.41-2.38-12.58-2.17-10.13-1.56-20.41-1.58-30.65Zm315.78-17.27c-.31.3-.58.76-.94.86-4.22,1.19-4.28,1.18-4.24,5.21.02,1.54-.52,2.26-2.03,2.03-2.2-.33-3.59.6-4.66,3.14,1.27.66,2.56,1.86,3.91,1.93,4.69.24,9.41.03,14.12.11,2.05.03,2.8-.91,2.66-2.79-.35-4.72.77-9.6-1.57-14.09-.31-.6-.6-1.21-.89-1.81-.59.42-1.22.81-1.77,1.28-1.58,1.37-1.69,4.35-4.65,4.21.41-.75.69-1.61,1.25-2.22,3.1-3.43,5.39-7.13,4.19-12.01-.62-2.52-1.22-5.09-2.28-7.43-1.02-2.26-2.25-4.67-4.05-6.28-3.04-2.73-6.6-4.88-10.1-7.39,3.08-2.77,4.15-6.24,2.32-9.89-1.41-2.83-3.56-5.31-5.51-7.83-1.85-2.39-4.08-4.5-5.75-6.99-1.31-1.96-3.71-2.79-5.37-1.14-6.25,6.25-12.5,12.51-18.67,18.84-2.53,2.6-2.29,3.13-.03,5.92,2.41,2.98,5.18,4.15,9.1,4.02,3.38-.11,6.81.97,10.19,1.61.39.07.72.71,1,1.13,1.47,2.17,2.91,4.35,4.51,6.74-.07.12-.34.47-.52.86-.94,2.04-.63,3.69,1.15,5.29,1.72,1.55,2.82.83,4.08-.41.42-.41.94-.96,1.46-1.01,2.12-.2,4.64-.97,6.27-.12,1.91.99,3.05,3.46,3.8,4.39-.68,1.11-1.41,2.12-1.93,3.22-.64,1.36-1.08,2.81-1.64,4.21-1.47,3.63-.17,5.91,3.63,6.3.99.1,1.99.07,2.98.11Zm34.48,155.43c4.26-4.73,7.8-8.46,11.11-12.39,2.93-3.48,5.68-7.13,8.38-10.79,2.08-2.82,4.02-5.75,5.93-8.69,2.1-3.25,4.14-6.55,6.11-9.88,1.96-3.31,3.92-6.62,5.65-10.04,1.57-3.1,2.84-6.36,4.23-9.56,1.34-3.11,2.78-6.18,3.95-9.35.94-2.52,1.51-5.17,2.31-7.75,1.54-4.99,3.35-9.9,4.63-14.96,1.35-5.32,2.36-10.75,3.24-16.17.7-4.3.26-8.68,1.57-13.02.91-3,.26-6.47.35-9.73.05-2.04-.85-2.97-2.92-2.96-9.15.03-18.3-.01-27.45.03-2.67.01-3.81,1.37-4.03,3.96-.54,6.62-1.2,13.24-1.83,19.86-.04.44-.23.86-.33,1.3-.95,4.11-1.88,8.22-2.86,12.32-.63,2.64-1.11,5.34-2.03,7.88-1.46,4.06-3.18,8.03-4.86,12.01-2.31,5.48-4.33,11.13-7.13,16.34-2.8,5.22-6.51,9.94-9.66,14.98-4.56,7.29-10.12,13.74-16.14,19.83-1.24,1.25-1.43,2.34.05,3.74,2.66,2.51,5.16,5.2,7.66,7.87,4.6,4.91,9.14,9.87,14.05,15.17ZM108.73,201.82v-.03c4.71,0,9.42-.06,14.13.03,2.08.04,2.9-.74,2.96-2.83.09-3.44.07-6.78,1.08-10.29,1.28-4.43.34-9.34,1.99-13.96,1.25-3.5,1.23-7.44,2.26-11.05,1.32-4.65,3-9.2,4.75-13.71,2.08-5.36,4.19-10.72,6.66-15.9,4-8.35,8.26-16.59,14.13-23.85,4.33-5.35,7.9-11.3,13.16-15.91,2.96-2.6,2.55-4.43-.86-6.62-.35-.22-.53-.68-.83-.98-5.83-5.93-11.66-11.87-17.52-17.78-1.34-1.35-2.66-1.58-4.01.15-2.17,2.79-4.27,5.67-6.72,8.2-4.43,4.57-8.26,9.56-11.67,14.93-3.75,5.91-7.86,11.6-11.54,17.54-2.01,3.23-3.47,6.8-5.17,10.22-1.65,3.3-3.52,6.52-4.88,9.94-1.46,3.66-2.43,7.51-3.64,11.27-.59,1.83-1.28,3.62-1.85,5.45-1.01,3.23-1.97,6.48-2.92,9.73-.17.6-.08,1.27-.26,1.87-.98,3.41-2.41,6.74-2.94,10.21-1.02,6.66-1.55,13.4-2.29,20.1-.06.53-.26,1.05-.32,1.58-.36,2.77-.79,5.54-1,8.32-.17,2.32.97,3.46,3.44,3.4,4.62-.1,9.24-.03,13.86-.03ZM435.83,67.48c-1.58,1.49-2.69,2.48-3.74,3.53-6.23,6.17-12.49,12.32-18.59,18.62-.59.61-.62,2.51-.11,3.29,1.13,1.72,2.88,3,4.18,4.63,4.02,5.05,8.01,10.12,11.87,15.28,2.25,3,4.28,6.17,6.32,9.33.58.89.55,2.37,1.29,2.93,4.93,3.72,5.33,9.71,7.59,14.74,1.58,3.53,2.79,7.22,4.14,10.84,1.49,4.01,3.22,7.95,4.35,12.06,1.38,5.01,2.52,10.13,3.26,15.27.9,6.28,1.29,12.64,1.88,18.96.06.63.06,1.27.02,1.9-.16,2.24.91,3.01,3.09,2.99,9.33-.07,18.66-.1,27.99-.01,2.67.03,3.59-1.06,3.32-3.58-.55-5.05-1.02-10.1-1.57-15.15-.6-5.5-1.24-11-1.88-16.5-.04-.35-.23-.68-.33-1.03-.92-3.23-1.89-6.46-2.75-9.71-.85-3.19-1.33-6.5-2.42-9.59-1.84-5.2-3.97-10.3-6.13-15.37-2.16-5.07-4.34-10.14-6.84-15.04-2.69-5.28-5.5-10.54-8.71-15.51-3.57-5.52-7.62-10.74-11.53-16.04-1.82-2.47-3.7-4.92-5.73-7.22-2.82-3.19-5.8-6.24-8.95-9.61Zm-147.04,318.8h.03c0-4.71-.01-9.42,0-14.12,0-1.27-.08-2.34-1.73-2.5-5.1-.52-10.2-1.11-15.3-1.65-1.7-.18-3.44-.14-5.12-.47-4.44-.87-8.84-1.89-13.26-2.84-2.83-.61-5.69-1.14-8.5-1.84-1.86-.47-3.69-1.12-5.48-1.81-2.52-.96-4.99-2.05-7.5-3.03-3.55-1.4-7.23-2.52-10.64-4.19-4.59-2.26-9.01-4.86-13.43-7.45-5.19-3.04-10.48-5.95-15.38-9.41-4.33-3.06-8.28-6.71-12.21-10.3-1.49-1.36-2.53-1.32-3.81-.04-6.53,6.53-13.08,13.06-19.56,19.64-.56.57-.89,1.52-1.03,2.34-.39,2.31,1.56,3.25,2.95,4.39,4.06,3.32,8.12,6.67,12.37,9.74,5.9,4.26,11.88,8.42,18.01,12.33,3.77,2.4,7.84,4.35,11.84,6.35,3.98,2,8,3.95,12.1,5.68,3.65,1.54,7.41,2.82,11.16,4.1,6.12,2.09,12.22,4.29,18.43,6.07,4.91,1.41,9.95,2.5,15,3.26,4.92.74,9.9.41,14.89,1.59,4.38,1.04,9.19.22,13.8.35,1.97.06,2.45-.78,2.41-2.59-.1-4.52-.03-9.05-.03-13.58ZM154.31,61.71c2.94,2.99,5.73,5.85,8.54,8.7,4.56,4.61,9.07,9.26,13.76,13.73.62.59,2.57.66,3.26.13,3.33-2.54,6.31-5.53,9.64-8.06,3.89-2.95,7.99-5.62,12.05-8.34,2.67-1.8,5.33-3.66,8.16-5.18,4.07-2.19,8.25-4.19,12.45-6.12,3.36-1.54,6.79-2.97,10.27-4.23,3.72-1.35,7.6-2.27,11.29-3.71,3.67-1.44,7.27-2.92,11.29-2.99.62-.01,1.23-.25,1.85-.37,4.76-.95,9.49-2.16,14.29-2.77,4.48-.57,9.04-.42,13.55-.74,2.06-.15,4.15-.42,4.12-3.45-.09-9.24-.07-18.47,0-27.71.02-1.99-.65-2.84-2.66-2.66-6.04.55-12.11-.6-18.18,1.43-4.16,1.4-8.83,1.21-13.26,1.87-3.76.56-7.49,1.3-11.24,1.97-.17.03-.33.14-.5.19-3.44,1.05-6.88,2.08-10.31,3.15-3.87,1.21-7.75,2.36-11.57,3.71-2.27.8-4.4,1.98-6.62,2.92-3.45,1.47-7.01,2.69-10.35,4.36-3.45,1.73-6.7,3.87-10.04,5.82-3.95,2.29-7.98,4.45-11.85,6.87-4.72,2.96-9.51,5.88-13.91,9.29-4.8,3.71-9.19,7.95-14.05,12.21Zm167.05,339.48c3.54-.74,6.89-1.47,10.26-2.13,3.49-.68,7.07-1.03,10.49-1.97,4.78-1.31,9.46-2.99,14.14-4.61,5.13-1.78,10.28-3.49,15.29-5.57,4.65-1.93,9.17-4.19,13.65-6.49,4.52-2.31,9.03-4.66,13.34-7.34,5.13-3.19,10.19-6.55,14.99-10.21,5.28-4.02,10.27-8.43,15.31-12.76,1.4-1.2.98-2.57-.3-3.7-.87-.77-1.82-1.44-2.65-2.25-5.94-5.85-11.89-11.69-17.76-17.61-1.4-1.41-2.63-1.3-4-.21-2.14,1.7-4.21,3.51-6.38,5.17-4.92,3.78-9.82,7.6-14.87,11.21-2.1,1.5-4.56,2.52-6.87,3.73-2.61,1.36-2.87,4.25-4.19,6.44-.92,1.53-1.69,3.15-2.52,4.73-2.24,4.3-8.05,5.1-9.76,9.94-.06.18-.47.22-.7.34-2.31,1.21-4.99,2.03-6.83,3.75-1.81,1.69-3.63,1.5-5.64,1.72-1.97.21-3.35-.69-4.82-1.73-2.69-1.91-5.71-3.43-8.11-5.65-1.57-1.45-2.93-1.45-4.62-1.09-4.52.97-8.99,2.21-13.54,2.9-5.33.81-10.73,1.22-16.11,1.67-1.98.17-2.54,1.04-2.59,2.94-.09,3.59-.53,7.18-.68,10.77-.1,2.62.05,5.24.07,7.86.02,2.83.17,5.66-.02,8.47-.12,1.82.29,2.83,2.21,2.87.72.02,1.45.04,2.17,0,7.04-.41,14.08-.83,21.03-1.24ZM306.03,7.93c-2.74,0-4.91.06-7.08-.02-1.43-.05-2.29.39-2.31,1.92-.06,5.27-.11,10.55-.16,15.82-.03,2.52.29,5.12-.19,7.55-.45,2.28.31,3.11,2.25,3.71.71.22,1.68.9,1.78,1.49.44,2.63,2.05,3.52,4.48,3.62,3.89.17,7.81.14,11.64.71,4.78.71,9.49,1.94,14.23,2.94,3.1.65,6.21,1.24,9.29,1.96,1.87.44,3.76.9,5.52,1.65,3.52,1.5,6.95,3.23,10.44,4.82,4.8,2.19,9.61,4.39,14.47,6.45.78.33,2.14.3,2.78-.18,3.65-2.7,7.13-1.4,10.88-.22,2.48.78,4.83,1.27,6.09,3.82.12.25.62.39.97.43,3.65.5,5.38,3.59,7.74,5.78,1.2,1.11,3.02,2.56,2.97,3.79-.13,3.51,2.5,5.19,4.02,7.59,1.2,1.88,3.51,2.25,4.9.85,1.75-1.77,3.38-3.67,5.12-5.44,4.24-4.33,8.53-8.61,12.77-12.93,1.03-1.05,1.58-2.15.07-3.38-1.22-1-2.19-2.32-3.44-3.28-3.96-3.03-8.02-5.93-11.99-8.94-2.84-2.15-5.47-4.6-8.44-6.56-3.85-2.54-7.94-4.73-11.94-7.05-3.93-2.28-7.82-4.65-11.86-6.73-2.74-1.4-5.73-2.29-8.56-3.53-3.31-1.45-6.51-3.18-9.87-4.5-2.64-1.04-5.48-1.57-8.18-2.44-4.38-1.42-8.67-3.18-13.11-4.35-5.3-1.4-10.69-2.59-16.11-3.38-6.54-.95-13.15-1.39-19.18-2ZM123.14,281.26c-1.27-1.15-2.6-2.03-3.48-3.24-1.32-1.82-2.69-3.09-5.1-3.42-.92-.12-1.82-1.71-2.39-2.81-.67-1.3-.84-2.84-1.43-4.19-1.36-3.14-2.65-6.16-.98-9.68,1.08-2.29,1.57-4.85,2.59-7.16.59-1.34,1.67-1.64,2.91-.3,1.27,1.37,6.46,1.34,6.88-.03.99-3.24,3.53-3.84,6.28-4,2.26-.13,2.53-1.37,2.1-3.1-.99-4.04-2.38-8.02-3-12.11-.88-5.82-1.31-11.71-1.73-17.59-.28-4-1.07-4.92-5.23-4.93-7.79,0-15.58.17-23.36-.07-4.79-.15-6.36,1.77-5.69,6.32,1.19,8.08,2.16,16.19,3.31,24.27.53,3.73,1.11,7.47,1.96,11.14.84,3.63,2.06,7.17,3.08,10.76.72,2.54,1.19,5.16,2.1,7.62,1.32,3.58,2.93,7.06,4.44,10.58.66,1.53,1.39,3.03,2.04,4.56,1.3,3.08,2.37,6.27,3.9,9.23,1.78,3.45,3.94,6.7,5.94,10.03,3.16,5.24,6.04,10.68,9.56,15.67,3.37,4.76,7.4,9.06,11.16,13.54,2.72,3.23,5.47,6.43,8.22,9.63,1.28,1.5,2.53,1.36,3.83-.04,1.51-1.64,3.06-3.23,4.64-4.81,4.94-4.94,9.93-9.82,14.84-14.79,1.84-1.86,1.65-3.55-.3-5.46-.79-.78-1.47-1.67-2.21-2.5-2.53-2.84-4.7-6.21-7.72-8.37-2.85-2.04-5.39-4.03-6.82-7.23-.48-1.08-.84-2.22-1.19-3.17-1.62.49-2.89,1.1-4.18,1.18-1.08.07-2.91-.2-3.16-.83-1.03-2.53-4.18-3.66-4.21-6.92,0-.84-1.71-2-2.85-2.45-3.28-1.29-6.44-2.59-8.53-5.67-.67-.99-1.51-2.07-2.53-2.55-2.62-1.23-3.05,1.07-3.69,2.88Zm26.83-79.45v-.02c4.62,0,9.24.07,13.86-.06.87-.02,2.32-.66,2.48-1.28.74-2.83,1.21-5.74,1.6-8.65.55-4.02-.12-8.06,1.77-12.09,1.89-4.02,2.38-8.69,3.64-13.03,1.1-3.79,2.08-7.68,3.75-11.23,2.51-5.36,5.13-10.76,8.51-15.59,4.26-6.1,8.11-12.62,13.91-17.55,1.53-1.3,1.89-2.77.07-4.28-1.42-1.17-2.76-2.45-4.07-3.74-4.36-4.32-8.65-8.69-13.04-12.98-1.37-1.34-2.05-4.22-4.45-3.47-1.81.56-3.42,2.28-4.76,3.8-3.46,3.92-6.72,8.02-10.06,12.05-.71.86-1.49,1.69-2.1,2.62-1.58,2.39-3.11,4.8-4.61,7.24-1.27,2.08-2.55,4.16-3.66,6.32-1.48,2.88-2.82,5.83-4.18,8.77-1.57,3.38-3.11,6.77-4.65,10.16-.54,1.19-1.2,2.35-1.56,3.6-.74,2.51-1.28,5.07-1.97,7.59-1.12,4.05-2.42,8.05-3.4,12.14-.77,3.22-1.29,6.52-1.7,9.81-.69,5.62-1.23,11.25-1.75,16.88-.2,2.14.82,3.08,3.07,3.02,4.44-.12,8.88-.04,13.32-.04Zm138.84-136.9c0-4.44-.06-8.88.03-13.32.04-2.08-.69-3-2.84-2.85-4.27.29-8.48.54-12.77,1.26-6.57,1.1-13.24,1.47-19.65,3.57-4.02,1.32-8.19,2.2-12.18,3.57-4.34,1.5-8.58,3.29-12.83,5.05-4.22,1.75-8.55,3.31-12.53,5.5-5.86,3.23-11.65,6.66-17.1,10.53-4.74,3.37-8.98,7.46-13.42,11.26-1.38,1.19-1.12,2.45.05,3.64,1.48,1.5,2.98,2.97,4.46,4.46,5.12,5.13,10.19,10.32,15.42,15.33.6.58,2.51.74,3.09.24,4.3-3.69,8.52-7.45,13.5-10.26,3.6-2.03,6.99-4.42,10.64-6.35,3.62-1.92,7.44-3.47,11.18-5.16,2.41-1.09,4.77-2.32,7.27-3.16,2.57-.87,5.29-1.29,7.92-1.99,3.57-.95,7.07-2.32,10.7-2.89,5.42-.86,10.92-1.25,16.4-1.7,1.93-.16,2.72-.9,2.68-2.86-.08-4.62-.03-9.24-.02-13.86Zm108.98,230.49c.91.09,1.98-.13,2.4.3,1.72,1.72,3.69,3.34,3.72,6.13.01,1.08-.2,2.47.37,3.16,1.64,2,1.37,3.84.5,6.01-.3.75.38,1.89.61,2.85.9-.35,2.06-.46,2.64-1.09,1.54-1.69,2.79-3.65,4.22-5.44,2.56-3.2,5.06-6.47,7.79-9.52,2.76-3.08,4.9-6.46,6.78-10.14,2.5-4.9,5.63-9.48,8.26-14.31,1.42-2.61,2.39-5.46,3.5-8.22,1.6-3.97,3.26-7.92,4.7-11.95.96-2.67,1.55-5.47,2.35-8.2.92-3.14,2.08-6.22,2.79-9.41.75-3.37,1.33-6.81,1.57-10.25.32-4.69.27-9.42.32-14.13.02-1.64-.86-2.48-2.55-2.48-9.15,0-18.3-.07-27.45.1-.95.02-2.55,1.39-2.69,2.32-.82,5.31-1.25,10.67-1.91,16.01-.26,2.08.49,3.61,1.94,4.99.91.87,1.7,1.87,2.55,2.81-.17.27-.34.53-.51.8-.74-.32-1.49-.59-2.2-.96-1.37-.7-2.72-1.32-3.55.63-.54,1.28-1.03,2.6-1.39,3.94-.7,2.62-1.02,5.38-2.01,7.88-1.35,3.39-3.13,6.62-4.81,9.88-2.9,5.67-5.51,11.52-8.91,16.88-2.76,4.36-6.5,8.09-9.79,12.11-1.11,1.36-2.98,2.73-3.03,4.14-.05,1.32,1.86,2.71,2.9,4.08.05.07.04.19.1.25,3.13,3.11,6.26,6.22,9.39,9.33.31-.12.62-.24.93-.36.14-2.54.29-5.09.46-8.13Zm-109,50h.02c0-4.53,0-9.06,0-13.59,0-1.36-.12-2.53-1.86-2.74-5-.59-9.99-1.17-14.97-1.87-3.72-.52-7.44-1.14-11.12-1.87-2.33-.46-4.66-1.02-6.88-1.86-3.49-1.31-6.9-2.84-10.3-4.36-4.08-1.82-8.24-3.5-12.15-5.63-4.58-2.5-8.99-5.34-13.36-8.21-2.65-1.74-5.01-3.91-7.66-5.65-.55-.36-1.84.2-2.66.6-.17.09-.02,1.54.39,2,2.54,2.88,5.19,5.67,7.82,8.46,1.55,1.64,1.14,3.01-.74,3.8-1.28.54-2.78.82-4.17.77-5.3-.18-10.18,1.01-15.01,3.24-1.63.75-4.18,1.48-6.09-.87-1.14-1.4-3.24-1.88-4.69-.24-1.22,1.38-.91,2.9.67,4.16,3.86,3.08,7.58,6.34,11.47,9.39,2.36,1.85,4.87,3.54,7.41,5.15,3.44,2.19,6.96,4.25,10.47,6.32,2.18,1.29,4.32,2.7,6.62,3.73,3.32,1.49,6.76,2.72,10.17,4.01,5.68,2.13,11.31,4.43,17.08,6.26,4.53,1.43,9.22,2.47,13.91,3.28,4.36.75,8.83.23,13.25,1.58,2.99.92,6.47.19,9.73.35,2.01.1,2.73-.67,2.69-2.67-.09-4.53-.03-9.06-.03-13.58Zm74.99-252.51c1.31,1.78,2.21,2.85,2.94,4.03,1.16,1.87,2.56,3.16,4.94,3.17,1.94.01,2.87,1.24,3.49,3.03.88,2.56,1.96,5.06,3.1,7.53.76,1.64,2.43,1.85,3.62.61,2.54-2.65,5.14-5.25,7.57-8,.63-.71,1.32-2.08,1.04-2.76-2.01-5-6.9-6.79-11.94-4.77-.78.31-2.72-.18-2.73-.37-.14-3.19-3.16-5.71-2.07-9.22.31-.99.14-2.95-.45-3.28-3.35-1.81-3.2-5.45-4.25-8.22-1.92-5.05-4.94-8.67-9.76-10.91-1.32-.62-2.66-1.2-4.01-1.77-3.61-1.54-7.18-3.17-10.84-4.58-2.95-1.14-5.99-2.04-9.02-2.96-2.71-.83-5.42-1.81-8.2-2.24-5.3-.81-10.64-1.28-15.97-1.89-.27-.03-.59.01-.8-.12-3.56-2.32-7.56-1.01-11.34-1.42-1.96-.21-2.43.85-2.51,2.59-.13,2.78-.57,5.55-.71,8.33-.12,2.35.02,4.71.03,7.06.02,3.38.22,6.78,0,10.15-.18,2.75,1.15,4.47,3.93,4.73,5.29.49,10.58,1.05,15.85,1.75,2.43.32,4.83,1,7.22,1.6,2.12.54,4.23,1.13,6.29,1.85,2.53.88,5.02,1.91,7.51,2.9,3.59,1.43,7.29,2.64,10.71,4.39,4.44,2.27,8.64,5.03,12.99,7.48,1.8,1.02,3.35-.06,3.37-2.18.01-1.89,0-3.78,0-6.52Zm20.15,26.33c1.06,1.87,1.84,3.67,2.99,5.19,2.71,3.55,5.52,7.03,8.47,10.38,1.02,1.16,2.66,1.75,3.9,2.74.58.46,1.28,1.31,1.23,1.92-.24,2.61.96,3.42,3.33,3.18.4-.04.82.14,1.42.26-.98,1.37-1.82,2.54-2.71,3.77.37.42.87.72.92,1.08.33,2.51,1.67,3.59,4.22,3.43.41-.03,1.03.83,1.29,1.39,1.75,3.76,1.93,7.74,1.96,11.84.02,2.74,1.12,5.48,1.81,8.21.09.37.54.8.92.94,2.5.89,2.18,2.89,2.12,4.91-.08,2.62-.16,5.27.1,7.87.3,2.98,1.06,5.9,1.48,8.87.19,1.33.08,2.71.07,4.07-.01,1.64.68,2.55,2.41,2.54,9.42-.02,18.84.01,28.26-.1.72,0,2.05-.97,2.06-1.5.04-5.34.23-10.71-.35-16-.53-4.89-1.95-9.68-2.98-14.51-.61-2.86-.93-5.83-1.92-8.56-1.99-5.52-4.33-10.91-6.53-16.35-1.11-2.73-3.2-3.38-5.48-1.67-1.46,1.09-2.35,1.25-3.63-.58-4.53-6.52-9.01-13.18-17.17-15.82-.9-.29-1.62-1.2-2.51-1.39-3.64-.77-5.63-3.35-6.62-6.52-.87-2.76-2.46-3.7-5.11-3.7-1.54,0-2.98.16-4.42-1.26-.76-.75-3.4-.48-4.57.27-1.85,1.2-3.19,3.19-4.98,5.1Zm-116.65,90.13c.23,0,.47,0,.7,0,0,1.2.4,2.61-.08,3.57-1.16,2.31-2.74,4.4-3.9,6.18-1.29,0-3.34-.51-3.76.1-1.01,1.46-1.59,3.48.57,4.91.3.2.4.73.54,1.13.86,2.58,3.17,3.1,5.08,1.14,2.08-2.14,2.89-5.62,6.52-6.19.27-.04.39-.94.6-1.43,1.08-2.47,1.2-5.87,5.31-5.4.37.04.79-.38,1.19-.58,3.57-1.76,5.98-.62,6.98,3.17.19.72.77,1.33,1.18,1.99-.23-.09-.45-.18-.68-.27-.9,2.41-2.05,4.76-2.62,7.24-.68,2.97-3.14,5.17-6.2,5.48-3.08.32-6.36-.61-9.2,1.53-1.12.84-1.69,1.54-.34,2.44,2.53,1.68,4.99,3.59,7.76,4.73,3.07,1.26,6.41,2.01,9.71,2.54,3.16.51,6.42.6,9.64.59.91,0,2.27-.82,2.64-1.63.86-1.9,1.45-3.99,1.79-6.06.73-4.4,2.48-5.83,6.84-5.35,1.43.16,2.9.25,4.33.09,2.45-.26,3.75-1.83,4.15-4.22.13-.79.12-1.72.54-2.32,1.64-2.31,1.48-4.37-.28-6.56-.62-.77-1.29-1.63-.49-3.06.52-.94.17-2.78-.44-3.85-1.69-2.98-3.72-5.76-5.68-8.72.68-.74,1.77-1.46,2.17-2.47.5-1.24,1.07-3.46.5-3.95-2.4-2.05-1.29-3.65.66-5.83-1.92-.7-3.48-1.16-4.94-1.84-.86-.4-1.73-1.02-2.28-1.78-1.68-2.3-3.25-4.54-6.32-5.33-2.93-.75-5.8-1.83-8.58-3.03-.86-.37-1.36-1.6-2.02-2.43.93-.31,1.84-.79,2.79-.88,1.95-.19,3.37-1.65,2.34-2.76-1.03-1.1-2.82-2.02-4.3-2.05-2.13-.05-4.26.88-6.42,1.18-1.68.23-1.99,1.1-1.46,2.43.94,2.33,2,4.61,3.05,7-2.86,2.13-5.41,4.3-9.2,4.37-1.91.03-3.53,1.17-4.5,3.2-.64,1.34-1.87,2.54-3.1,3.44-2.81,2.05-4.56,4.75-5,8.1-.34,2.58,0,5.25-.19,7.86-.06.76-.92,1.46-1.41,2.18-.49-.68-1.14-1.29-1.43-2.05-.31-.82-.17-1.8-.43-2.65-.52-1.72-1.98-2.27-3.44-1.69-.78.31-1.58,1.59-1.64,2.48-.14,2.33,0,4.7.26,7.03.3,2.68,7.28,5.46,9.42,3.81.4-.31.65-.85.89-1.32.74-1.4,1.44-2.82,2.16-4.23Zm36.08-120.02s-.02.1-.03.15c-1.63,0-3.27-.12-4.89.06-.61.07-1.43.68-1.67,1.25-.48,1.14-.87,2.42-.88,3.65-.07,8.06-.13,16.13.04,24.19.03,1.49.27,3.45,2.73,3.71,4.02.42,8.03,1.02,12.01,1.7,2.43.42,4.84,1.08,7.22,1.75,1.85.53,3.71,1.11,5.44,1.93,3.02,1.41,6.06,2.85,8.89,4.59,4.75,2.92,9.46,5.94,13.95,9.24,1.71,1.26,3.11,1.42,4.57.31,1.55-1.19,2.87-2.69,4.21-4.12,2.64-2.81,5.13-5.76,7.85-8.48,2.58-2.59,5.4-4.93,8.07-7.44,1.28-1.2,1.44-2.48-.23-3.55-1.03-.66-2.13-1.24-3.11-1.96-4.48-3.3-8.78-6.86-13.44-9.89-3.24-2.11-6.94-3.52-10.45-5.21-4.5-2.17-8.9-4.58-13.55-6.37-4.02-1.55-8.26-2.62-12.49-3.47-4.7-.94-9.5-1.38-14.25-2.04Zm-14.55,16.56c0-4.71-.03-9.41.02-14.12.01-1.54-.48-2.19-2.15-2.36-6.99-.7-13.66,1.57-20.53,1.99-.26.02-.51.17-.77.25-3.01.96-6.01,1.93-9.02,2.86-2.38.73-4.92,1.12-7.15,2.17-5.48,2.56-10.84,5.38-16.21,8.16-2.4,1.24-4.86,2.45-7.07,3.99-3.73,2.6-7.27,5.47-10.92,8.18-1.8,1.33-1.98,3.71-.34,5.26.89.84,1.73,1.73,2.59,2.6,5.71,5.74,11.38,11.54,17.21,17.15.54.52,2.43.27,3.26-.27,2.71-1.76,5.04-4.16,7.84-5.71,4.87-2.7,9.31-6.18,14.97-7.51,4.32-1.01,8.34-3.28,12.64-4.35,4.15-1.03,8.49-1.36,12.77-1.76,2.01-.19,2.93-.79,2.88-2.93-.11-4.52-.03-9.05-.04-13.58Zm-105.09,123.41c1.43,1.79,2.32,3.83,3.84,4.58,2.55,1.25,3.27,3.37,4.1,5.63.21.57.68,1.07.76,1.64.16,1.16.16,2.34.19,3.51.03.88-.24,1.86.06,2.64,1.07,2.84,2.52,5.41,2.55,8.71.05,4.32.96,8.64,1.73,12.92.18,1.02,1.33,1.84,1.95,2.8.9,1.39,2.45,2.82,2.46,4.23,0,3.41,1.63,5.63,3.7,8.05,1.42,1.67,2.43,1.37,3.52.31,6.78-6.6,13.57-13.21,20.13-20.03.78-.82.79-3.34.11-4.42-1.87-2.97-4.43-5.49-6.46-8.37-1.81-2.58-3.43-5.33-4.86-8.14-1.41-2.78-2.51-5.72-3.69-8.61-1.07-2.62-2.59-5.19-2.95-7.91-.4-3.02-1.39-5.37-3.06-6.59.37-2.81.85-4.99.89-7.19.05-3.1-1.41-4.4-4.44-4.39-2.63,0-5.25.02-7.88.03-3.38,0-4.71,1.16-5.06,4.43-.24,2.24-1.08,3.72-3.71,3.64-1.16-.03-2.33.5-4.43,1,1.11-1.63,2.01-2.71,2.65-3.94.53-1.01,1.21-2.3.96-3.24-.2-.8-1.58-1.68-2.54-1.81-2.05-.27-4.16,0-6.24-.07-2.54-.1-3.81,1.03-3.53,3.56.7,6.34,1.47,12.66,2.26,18.99.06.51.39,1,.66,1.46,1.21,1.99,2.98,1.97,4.14,0,.74-1.25,1.56-2.46,2.18-3.43Zm22.58-104.29c-2.04,2.62-3.71,4.68-5.3,6.8-3.52,4.72-7.47,9.21-10.37,14.29-3.68,6.45-7.61,12.87-9.33,20.27-.47,2.04-1.21,4.01-1.84,6.01-1,3.2-2.12,6.37-2.96,9.61-.45,1.73-.45,3.58-.66,5.38-.47,4-1,8-1.37,12.01-.17,1.83.93,2.51,2.73,2.46,3.35-.09,6.7-.06,10.05-.03,4.76.04,4.76.06,3.16-4.16-.03-.08-.03-.18-.04-.27-.86-6.23.13-12.05,3.85-17.25.3-.42.96-.79.96-1.18.02-2.86,2.07-2.75,3.97-2.79,3.87-.09,5.87-1.7,6.28-5.49.21-1.93,1.17-2.32,2.91-2.78,2.01-.53,3.91-1.79,5.61-3.06,1.36-1.01,2.2-2.7,3.54-3.75,2.01-1.57,4.45-2.62,6.33-4.32,1.8-1.63,3.02-3.88,4.66-5.7,1.43-1.59,1.45-2.74-.16-4.29-4.54-4.37-8.92-8.9-13.39-13.34-2.72-2.71-5.49-5.37-8.61-8.42Zm55.67,178.11c1.05-1.2,2.57-2.17,2.88-3.43,1.03-4.27,3.51-7.15,7.23-9.27,2.19-1.25,2.15-3.38-.14-4.32-2.99-1.23-6.16-2.03-9.25-3.03-1.91-.62-3.94-1.03-5.69-1.96-3.24-1.73-6.36-3.7-9.44-5.69-3.31-2.14-6.46-4.53-9.83-6.57-.85-.51-2.74-.59-3.33-.02-6.64,6.4-13.14,12.94-19.64,19.49-1.89,1.9-1.58,3.87.68,5.31.52.33,1.02.69,1.46,1.11,4.87,4.61,10.51,8.07,16.48,11.04,1.36.68,2.63,1.54,3.99,2.24,3.05,1.57,6.05,3.31,9.23,4.59,3.59,1.44,7.49,2.13,11,3.71,4.73,2.13,9.55,3.22,14.69,3.02.82-.03,1.63-.42,3.36-.89-5.98-4.57-10.3-9.57-13.67-15.3Zm49.82-32.55c-2.31-.97-4.46-1.9-6.62-2.78-1.18-.48-2.51-1.42-3.57-1.19-1.56.33-2.96,1.47-4.38,2.34-3.47,2.13-4.54,6.83-8.67,8.25-1.34.46-2.75.78-4.14.87-.18.01-.55-1.82-.67-2.81-.11-.89.06-1.81,0-2.71-.15-1.98.44-3.14,2.7-2.91,1.55.16,2.38-.63,2.38-2.22,0-5.34.05-10.69-.09-16.02-.02-.71-.93-1.8-1.63-2-2.57-.74-5.28-1.01-7.84-1.77-2.58-.77-5.11-1.78-7.53-2.96-2.11-1.03-3.91-2.75-6.07-3.59-1.15-.45-3.24-.18-4.1.62-6.22,5.82-12.29,11.82-18.24,17.92-.65.66-.8,2.85-.23,3.47,1.73,1.91,3.73,3.73,5.96,5,4.82,2.74,9.34,5.97,14.92,7.44,3.67.97,7.04,3.09,11.04,3.08.55,0,1.1.47,1.65.72,3.56,1.63,7,4.09,11.18,2.65,2.47-.85,4.74-2.27,7.04-3.41.9.52,1.76,1.39,2.73,1.53,5.53.82,10.84-.71,16.14-1.93,2.94-.68,5.8-1.87,8.58-3.1,2.48-1.1,4.79-2.55,7.17-3.86.73-.41,1.42-.91,2.17-1.29,2.22-1.12,5-1.51,5.78-4.5-4.44-2.16-7.62-.69-8.57,4.45-1.41-.72-2.72-1.25-3.88-2.01-3.29-2.15-3.27-2.18-5.55.93.4.61.82,1.23,1.64,2.47-1.49-.21-2.7-.02-3.17-.52-2.12-2.26-4.07-1.4-6.1-.15Zm-36.39-115.84c1.26.62,2.11,1.36,2.99,1.41,2.25.13,4.54.15,6.77-.14,2.17-.29,3.71-1.42,3.68-4.03-.08-6.24-.14-12.48.02-18.72.06-2.43-.77-3.33-3.1-3-4.12.57-8.25,1.03-12.34,1.75-2.68.47-5.41,1.01-7.92,2.02-3.16,1.27-6.07,3.15-9.18,4.56-4.65,2.12-8.85,4.85-12.67,8.25-1.8,1.61-1.75,2.87-.15,4.4,1.45,1.39,2.82,2.87,4.32,4.19,3.17,2.79,6.24,5.72,9.67,8.15,1.94,1.38,4.48,1.94,6.8,2.72.59.2,1.4-.14,2.07-.33,1.08-.32,2.11-.95,3.19-1.05,2.26-.19,3.27-1.64,3.88-3.47.75-2.24,1.33-4.53,1.96-6.7Zm101.01,82.77c-1.8,3.28-3.22,5.92-4.7,8.53-.95,1.68-1.86,3.14-4.25,3.42-1.82.21-3.86,1.22-5.17,2.51-2.11,2.09-3.69,4.71-5.38,6.93,1,3.02,3.43,3.12,5.37,2.34,1.35-.54,2.07-2.59,3.18-3.85.93-1.05,1.89-2.23,3.1-2.81.75-.36,2.88.3,2.88.47-.06,2.49,3.05,4.36,1.4,7.09-.36.6-.85,1.16-1.05,1.82-1.05,3.42-2.08,6.85-2.96,10.32-.18.71.12,1.73.55,2.37.62.9,1.75,1.45,2.33,2.37.98,1.53,1.68,1,2.41-.09.71-1.06,1.34-2.17,2.32-3.76.31,2.29.44,4.07.83,5.78.17.76.74,1.84,1.34,2,.62.17,1.71-.41,2.21-.99,2.24-2.56,4.52-5.12,6.44-7.91,2.62-3.82,4.95-7.84,7.34-11.81,2.04-3.4,4.3-6.73,5.91-10.34,1.97-4.43,3.37-9.12,5.18-14.17-2.78,0-5.51-.76-7.43.16-3.98,1.92-8.04,1.44-11.85.86-2.89-.44-4.16-.2-4.92,2.53-.12.42-.88.83-1.39.9-.3.04-.75-.55-1.03-.93-.9-1.21-1.75-2.46-2.66-3.74Zm-54.26-66.38c1.04-1.52,1.84-3.22,3.1-4.45,3.34-3.24,6.89-6.26,10.34-9.38,1.82-1.65,3.19-3.37.44-5.61.75-.45,1.29-.72,1.77-1.07,2.79-2.06,2.98-3.61.37-5.85-1.83-1.57-3.93-2.85-5.97-4.16-1.92-1.23-3.82-2.61-5.92-3.44-3.68-1.45-7.55-2.39-11.25-3.78-5.1-1.91-10.27-3.23-15.78-3.16-1.81.02-2.67.48-2.66,2.41.06,6.72.01,13.44.05,20.15,0,1.85.79,3.12,2.84,3.27,1.81.14,3.71-.3,5.21,1.4.29.33,1.9-.09,2.59-.59,1.61-1.16,2.87-3.3,4.59-3.72,2.31-.56,4.27-.84,4.53-3.64.47.2.74.23.77.34,1.15,3.62-1.04,10.75-6.27,11.12-.69.05-1.46,1.15-1.88,1.94-.16.31.41,1.33.89,1.6,3.87,2.17,7.79,4.23,12.24,6.62Zm-156.81,52.47c2.99-1.22,2.86-3.38,2.48-5.59-.39-2.25-.97-4.48-1.23-6.74-.21-1.78-.98-2.57-2.77-2.57-9.05.03-18.09.02-27.14.02-2.38,0-3.22,1.4-3.02,3.52.7,7.43,1.37,14.86,2.25,22.26.35,2.93,1.11,5.82,1.88,8.68.84,3.1,1.87,6.15,2.89,9.2.23.7.66,1.74,1.17,1.85.82.18,1.91-.05,2.65-.51,3.8-2.33,2.68-7.12,4.94-10.25.08-.1.03-.43-.07-.51-3.41-2.88.78-5.28.73-8.04-.03-1.22,1.43-3.53,3.63-4.75,2.55-1.41,5.43-2.82,6.92-5.92.93-1.92,2.92-2.6,4.68-.66Zm73.52,10.11c-.33.13-.66.26-.99.39-.6-1.4-1.54-2.76-1.73-4.22-.28-2.08-1.25-2.76-3.18-2.86-1.08-.06-3.01-.39-3.08-.81-.39-2.64-2.18-2.38-4.01-2.48-.71-.04-1.35-.81-2.08-.94-1.45-.26-3.06-.67-4.37-.27-.58.18-1.01,2.24-.81,3.32.41,2.23,1.26,4.39,1.98,6.56.7,2.08,1.14,4.34,2.27,6.17,3.14,5.08,6.39,10.11,9.95,14.89,2.27,3.04,3.02,3.89,6.03.8,6.29-6.44,12.55-12.91,18.94-19.5-.76-1.28-1.63-2.84-2.6-4.32-1.2-1.83-2.55-1.96-3.67-.19-1.38,2.18-2.69,4.46-3.62,6.85-.62,1.61-1.32,2.18-3.18,1.7,0-1.46.03-2.89,0-4.32-.06-2.26-1.16-3.71-3.45-4.05-2.75-.41-1.88,1.98-2.4,3.29Zm72.65,110.03c.79-1.8,2.32-3.69,2.29-5.55-.06-2.86-1.98-3.98-5.1-4.07-1.17-.03-2.35-.02-3.53-.07-1.72-.08-3.49.47-4.98-1.24-.4-.46-3.07.06-3.18.5-.61,2.5-.98,5.12-1.02,7.7-.08,5.8.1,11.6.14,17.4.01,1.79.32,3.38,2.56,3.22,7.57-.56,15.14-1.22,22.7-1.85.35-.03.71-.16,1.02-.32,2.29-1.24,2.5-2.27.54-4-1.19-1.05-2.65-1.82-4.05-2.6-2.33-1.29-4.89-2.3-5.98-5.03-.51-1.28-.91-2.61-1.41-4.07Zm89.13-24.28c-1.43-1.23-3.04-2.39-4.39-3.8-5-5.23-9.86-10.6-14.89-15.79-3.89-4.02-4.14-3.93-7.66.41-2.69,3.32-2.26,6.72.83,8.4,2.76,1.51,5.43,3.25,7.95,5.13,2.03,1.51,1.73,3.57-.16,5.33-1.6,1.49-3.08,3.16-4.35,4.95-.54.76-.78,2.16-.46,3,.84,2.23,1.92,4.4,3.23,6.39.33.51,2.15.68,2.76.26,3.07-2.17,6.02-4.53,8.91-6.95,2.61-2.18,5.09-4.52,8.24-7.34Zm-1.62-110.76s0-.02,0-.03c-2.62,0-5.25-.09-7.87.05-.84.04-2.2.56-2.34,1.1-.19.77.32,1.96.91,2.63,2.07,2.33,4.4,4.34,4.19,8.01-.06,1.04,1.35,2.74,2.46,3.16,2.75,1.02,3.94,2.71,4.5,5.54.31,1.61,1.26,3.91,3.65,3.47,1.16-.21,2.71-1.34,3.06-2.4.88-2.67,1.41-5.5,1.67-8.31.32-3.41.2-6.87.29-10.3.05-2.02-.83-3-2.93-2.93-2.53.08-5.06.02-7.6.02Zm-46.55,69.17c-6.72-4.95-16.64-4.18-19.3,1.63,1.87.75,3.73,2.09,5.62,2.14,4.92.15,8.71,2.73,12.88,4.73,2.5,1.2,5.54,1.46,8.37,1.67,1.81.13,3.68-.6,5.53-.93,1.5-.27,2.03-1.21.86-2.18-2.27-1.88-3.08-5.76-7.11-5.32-.29.03-.62-.71-.99-.78-1.93-.4-3.58-2.64-5.85-.96Zm-150.92-76.05v-.02c1.18,0,2.48.32,3.5-.08,1.28-.5,2.96-1.37,3.33-2.47.43-1.25-.01-3.16-.74-4.38-1.78-2.98-8.59-1.71-10.81,1.03-.95,1.17-1.47,3.08-1.32,4.56.06.58,2.49.98,3.87,1.33.68.17,1.44.03,2.17.03Zm131.2,38.63c3.31,3.16,6.78,6.21,9.9,9.59,1.04,1.13,1.95,1.55,2.78.64.51-.56.19-1.97.09-2.99-.05-.59-.61-1.17-.58-1.72.23-3.47-1.67-5.02-4.82-5.43-.2-1.05-.38-1.98-.54-2.85-2.83-.84-5.12-.58-6.83,2.75Zm-9.22,22.8c1.03-.21,1.54-.19,1.89-.41,2.67-1.67,5.35-3.34,7.94-5.13.47-.32.82-1.25.74-1.83-.25-1.85-4.81-3.9-6.36-2.83-2.08,1.43-4.16,2.92-5.95,4.67-.7.68-1.12,2.36-.77,3.22.43,1.04,1.8,1.7,2.51,2.31Zm28.34-103.24c.12-2.91-.73-4.15-2.91-4.26-2.01-.1-4.74,1.73-4.17,3.11.77,1.87,2.26,3.72,3.93,4.84,1.24.83,3.05-1.42,3.14-3.69Zm-103.94,52.66c.27-1.65-.3-2.52-2.14-2.5-2.24.03-4.96,1.82-5,3.41-.06,2.52,1.81,2.32,3.38,2.3,2.06-.02,4.13-.22,3.76-3.21Z"/><path class="cls-1" d="m303.62,32.23c1.61,0,2.63-.05,3.64,0,3.35.18,6.27-1.14,8.93-2.88,5.13-3.35,12.79-3.01,17.4,1.13.49.44.68,1.59.52,2.29-.23.98-5.22,2.01-6.2,1.61-2.98-1.22-5.91-1.33-8.99.04-1.56.69-3.47.7-5.23.79-3.35.17-6.8.54-10.07-3Z"/><path class="cls-1" d="m394.14,58.83c-1.92-1.86-3.84-3.73-5.91-5.74,1.69-.68,3.48-.87,4.67.71.95,1.26,1.33,2.94,1.97,4.44-.24.2-.49.4-.73.6Z"/><path class="cls-1" d="m196.84,226.37c2.09-.65,3.27-1.02,4.59-1.42v3.07c-1.4-.5-2.64-.95-4.59-1.65Z"/><path class="cls-1" d="m370.08,481.08c-2.98,2.42-5.79,4.63-8.52,6.93-1.32,1.11-2.09.62-3.05-.49-4.16-4.75-8.31-9.51-12.62-14.11-2.32-2.47-4.92-4.68-7.46-6.93-3.16-2.8-6.24-5.72-9.6-8.25-6.7-5.05-13.47-10.04-20.43-14.73-4.01-2.7-8.4-4.87-12.73-7.05-.93-.46-2.51-.25-3.53.22-4.3,2-8.57,4.09-12.71,6.39-2.67,1.48-5.2,3.28-7.62,5.15-5.45,4.21-10.67,8.73-16.21,12.81-8.93,6.58-16.16,14.88-23.7,22.86-1.15,1.22-1.9,2.85-3.14,3.93-.59.51-2.21.63-2.83.18-2.81-2.01-5.43-4.28-8.03-6.37,4.03-4.14,7.73-8.58,12.09-12.25,5.46-4.6,11.46-8.55,17.22-12.81,2.87-2.13,5.61-4.46,8.58-6.43,3.71-2.46,7.52-4.81,11.46-6.9,4.39-2.33,8.94-4.35,13.46-6.43.71-.33,1.68-.12,2.38-.46.79-.38,1.42-1.1,2.12-1.67-.66-.65-1.26-1.77-2-1.89-4.75-.72-9.53-1.33-14.32-1.76-6.88-.62-12.5,2.58-18.03,6.12-4.09,2.63-8.44,4.87-12.47,7.59-4.49,3.03-8.67,6.52-13.14,9.59-2.91,2-6.07,3.66-9.15,5.39-3.05,1.71-6.09,3.45-9.25,4.92-1.99.93-4.25,1.29-6.31,2.1-6.08,2.4-12.36,3.48-18.9,3.61-2.98.06-5.97,1.27-8.93,1.16-4.62-.17-9.31-.59-13.79-1.68-5.33-1.3-10.63-3.05-15.64-5.27-4.62-2.05-8.87-4.93-13.23-7.53-3.18-1.9-6.27-3.94-9.76-6.15.73-.39,1.1-.73,1.27-.65,3.44,1.66,7.22,2.32,10.74,3.54,9.05,3.15,18.25,3.29,27.5,2.71,4.7-.3,9.31-1.87,13.96-2.88,2.85-.62,5.78-.99,8.51-1.95,4.85-1.7,9.59-3.73,14.35-5.69,3.58-1.48,7.13-3.01,10.64-4.63,2.3-1.07,4.49-2.39,6.76-3.53,1.97-.98,3.93-2.02,6-2.76,5.08-1.83,10.22-3.51,15.34-5.25.09-.03.17-.06.26-.07,4.21-.61,8.42-1.63,12.65-1.73,9.96-.24,19.94-.3,29.88.11,3.74.16,7.41,1.83,11.11,2.82,3.3.88,6.55,1.13,9.73-.5.69-.36,1.44-.66,2.2-.81,13.1-2.72,26.39-2.02,39.57-1.42,4.81.22,10.03.52,14.68,2.86,1.88.94,4.13,1.1,6.11,1.89,5.31,2.12,10.53,4.43,15.83,6.58,3.23,1.31,6.56,2.39,9.78,3.73,2.84,1.18,5.55,2.67,8.4,3.82,2.87,1.16,5.83,2.1,8.77,3.08,2.98,1,5.99,1.94,8.98,2.9.26.08.52.18.78.22,4.95.63,9.88,1.52,14.84,1.79,5.6.31,11.26.42,16.84-.07,4.07-.36,8.05-1.79,12.05-2.83,2.31-.6,4.59-1.37,6.88-2.06.17.31.34.62.52.92-2.48,1.83-4.82,3.93-7.48,5.44-4.45,2.52-9.05,4.78-13.7,6.91-3.03,1.39-6.28,2.26-9.39,3.49-10.29,4.07-21.07,3.52-31.75,3-3.75-.18-7.42-1.85-11.13-2.86-2.39-.65-4.86-1.12-7.15-2.04-4.23-1.69-8.4-3.53-12.49-5.53-2.58-1.26-5-2.87-7.44-4.4-3.29-2.06-6.59-4.11-9.78-6.32-5.87-4.08-11.46-8.61-17.57-12.28-3.68-2.21-7.64-4.29-12.43-4.08-3.62.16-7.28-1.12-10.92-1.11-2.79,0-5.62.91-8.35,1.68-.71.2-1.29,1.37-1.57,2.21-.08.25.98,1.03,1.62,1.36,4.08,2.11,8.23,4.09,12.28,6.25,4.34,2.31,8.65,4.71,12.9,7.18,2.84,1.66,5.65,3.4,8.32,5.32,3.75,2.69,7.47,5.45,11.02,8.4,6.4,5.33,12.67,10.83,18.98,16.27.43.37.72.89.93,1.14Z"/><path class="cls-1" d="m78.76,561.14c-1.57-3.68-2.73-6.65-4.11-9.52-1.97-4.12-4.13-8.15-6.14-12.25-.8-1.64-1.38-3.38-2.15-5.04-.23-.49-.77-.83-1.16-1.24-.37.43-.9.81-1.08,1.31-.2.57-.12,1.25-.12,1.88,0,9.15.02,18.3.03,27.45,0,1.89-.1,3.75,2.73,3.58.34-.02,1.07,1.11,1.08,1.72.09,3.71.1,7.43-.07,11.14-.03.67-.97,1.85-1.51,1.86-7.23.12-14.47.08-21.95.08v-14.5c.06-.05.18-.26.33-.28q4.38-.53,4.38-5.09c0-15.95,0-31.89.01-47.84,0-4.86.02-4.86-4.87-5.52,0-4.43-.06-8.93.08-13.42.02-.49,1.18-1.33,1.83-1.34,5.34-.1,10.7-.24,16.03.1,1.26.08,2.76,1.72,3.52,3.01,1.38,2.34,2.29,4.95,3.4,7.45,1.82,4.09,3.59,8.2,5.51,12.24,1.22,2.57,2.67,5.02,4.33,8.11,1.01-1.49,1.92-2.56,2.51-3.78,1.72-3.55,3.29-7.17,4.94-10.74,2.33-5.03,4.64-10.06,7.07-15.04.3-.62,1.22-1.33,1.87-1.34,5.43-.1,10.87-.11,16.31.01.71.02,1.99.91,2.01,1.43.16,4.41.09,8.82.09,13.15-4.16.91-4.95,1.92-4.82,5.55.08,2.3.02,4.6.02,6.89,0,10.24-.21,20.48.1,30.71.12,3.76.83,7.41,0,11.23-.43,1.98.35,4.18,3.35,4.16.48,0,1.37,1.11,1.38,1.72.11,3.71.12,7.43-.08,11.14-.04.68-1.18,1.85-1.83,1.87-6.7.15-13.41.14-20.11.03-.61-.01-1.68-1.08-1.71-1.69-.17-3.8-.16-7.61-.03-11.41.02-.6.96-1.68,1.44-1.66,2.45.12,2.68-1.56,2.67-3.19-.03-6.05-.38-12.11-.21-18.16.06-2.29.68-4.53,0-6.86-.21-.72.44-1.67.57-2.53.13-.9.33-1.9.05-2.71-.15-.44-1.46-.95-1.83-.73-.62.37-.97,1.26-1.31,2-1.24,2.66-2.43,5.33-3.62,8.01-1.05,2.38-1.96,4.82-3.12,7.15-1.72,3.43-3.6,6.77-5.8,10.88Z"/><path class="cls-1" d="m527.21,581.94c-1.82-4.12-3.63-8.11-5.33-12.14-.77-1.83-1.25-3.78-1.97-5.63-2.05-5.32-4.19-10.6-6.21-15.93-.91-2.41-1.65-4.89-2.43-7.34-.16-.51-.05-1.17-.34-1.58-.68-.97-1.51-1.83-2.29-2.74-.34,1.01-.97,2.01-.98,3.02-.08,7.34-.02,14.67-.04,22.01-.01,4.99-.04,4.99,4.93,6.04,0,4.31.06,8.71-.08,13.1-.02.48-1.17,1.31-1.8,1.32-7.06.09-14.13.03-21.2.08-1.51,0-1.81-.72-1.8-2.01.03-3.53.06-7.07-.06-10.6-.06-1.78.55-2.52,2.33-2.34,2.17.22,2.78-.93,2.77-2.94-.04-17.48-.05-34.96,0-52.45,0-2-.72-2.89-2.7-2.64-1.85.24-2.37-.7-2.35-2.37.05-3.62.07-7.25,0-10.87-.03-1.47.6-1.85,1.95-1.84,5.89.04,11.78.02,17.66-.03,3.15-.03,2.65,2.96,3.5,4.54,1.98,3.69,3.33,7.73,4.89,11.65.55,1.4.92,2.87,1.42,4.29,1.4,3.94,2.74,7.91,4.25,11.81,1.75,4.52,3.67,8.98,5.51,13.46.29-.01.58-.03.87-.04.26-.84.74-1.68.74-2.52.06-8.6.03-17.21.07-25.81,0-1.55-.53-2.49-2.2-2.27-2.49.33-2.86-1.05-2.79-3.09.11-3.26.09-6.52.02-9.78-.03-1.47.42-2.2,1.97-2.2,7.5.02,15.01.01,22.85.01,0,4.7.06,9.2-.09,13.68-.02.48-1.37,1.33-2.06,1.29-2.4-.14-2.89,1.04-2.88,3.11.06,22.46.07,44.93.09,67.39,0,.71-.06,1.42-.1,2.35h-16.13Z"/><path class="cls-1" d="m190.29,508.89c0-4.56-.06-8.99.08-13.41.01-.48,1.13-1.33,1.74-1.33,13.86-.05,27.71-.04,41.57.08.94,0,1.95.87,2.78,1.51,2.16,1.66,4.4,3.26,6.3,5.19.95.97,1.72,2.61,1.73,3.94.11,22.1.1,44.19.01,66.29,0,1.19-.68,2.64-1.52,3.51-2.29,2.38-4.81,4.54-7.3,6.72-.48.42-1.26.7-1.9.7-14.13.04-28.25.04-42.38.03-.25,0-.5-.15-.93-.29v-14.19c.22-.14.36-.3.52-.32,4.24-.46,4.21-.46,4.21-4.68,0-16.12,0-32.24.02-48.36,0-4.73.02-4.73-4.93-5.39Zm19.91,29.17c0,8.78.03,17.56-.03,26.35-.01,2.04.63,2.94,2.81,2.87,4.43-.13,8.88-.17,13.31,0,2.52.1,3.3-.83,3.3-3.27-.07-17.38-.05-34.76-.01-52.15,0-1.89-.49-2.79-2.61-2.72-4.7.14-9.42.15-14.12,0-2.25-.07-2.71.82-2.69,2.86.09,8.69.04,17.38.04,26.07Z"/><path class="cls-1" d="m439.66,494.1c0,4.74-.04,8.99.02,13.23.03,1.71-.93,1.99-2.25,1.83-2.42-.29-2.84,1.06-2.83,3.09.05,17.12.06,34.23.06,51.35,0,3.37.14,3.6,3.43,3.62,4.71.03,9.42-.06,14.13.02,2.21.04,3.07-.87,3.06-3.06-.03-17.39-.03-34.78.02-52.17,0-2.07-.72-3.06-2.84-2.89-.61.05-1.23-.04-2.17-.09,0-4.62-.05-9.12.07-13.61.01-.45,1.04-1.25,1.61-1.26,7.06-.09,14.13-.11,21.19.03.65.01,1.8,1.21,1.84,1.91.2,3.52.07,7.06.12,10.59.02,1.64-.52,2.7-2.34,2.46-2.56-.34-2.71,1.17-2.7,3.12.04,18.93-.12,37.86.13,56.79.07,4.97-3.47,6.89-6.22,9.64-.61.61-1.53.89-2.21,1.44-1.81,1.46-3.73,2.09-6.15,2.04-7.15-.17-14.32-.32-21.46.04-4.01.2-6.66-1.69-9.34-4.02-.57-.49-1.09-1.05-1.68-1.51-2.96-2.34-3.56-5.33-3.51-9.07.22-18.2.07-36.41.13-54.61,0-2.46-.11-4.33-3.38-3.96-.48.05-1.56-1.16-1.59-1.82-.15-3.8-.14-7.61,0-11.41.02-.59.97-1.65,1.5-1.65,7.68-.11,15.35-.07,23.36-.07Z"/><path class="cls-1" d="m127.28,537.99c0-11.05.03-22.09-.02-33.14,0-1.87.41-3.11,2.18-4.2,2.25-1.38,4.08-3.45,6.19-5.08.89-.68,2.05-1.41,3.1-1.42,9.23-.1,18.47.05,27.71-.09,3.22-.05,4.23,2.81,6.38,4.13,1.1.67,2.13,1.67,2.83,2.75.92,1.43,2.11,3.08,2.12,4.65.14,21.91.04,43.82.15,65.74.02,3.08-2.58,3.94-4.02,5.63-3.24,3.78-7.38,5.69-12.78,5.3-7.03-.5-14.12-.23-21.18-.04-2.39.07-3.99-.85-5.55-2.37-2.05-1.99-4.25-3.82-6.23-5.88-.56-.59-.81-1.7-.81-2.57-.05-11.14-.03-22.27-.03-33.41h-.03Zm15.02.2s.02,0,.03,0c0,8.69.05,17.38-.04,26.06-.02,2.21.67,3.08,2.94,3.02,4.97-.12,9.95-.1,14.93-.02,2.25.04,2.99-.92,2.98-3.09-.04-17.37-.04-34.75.02-52.12,0-2.08-.68-2.94-2.81-2.91-5.07.09-10.14.12-15.2,0-2.29-.06-2.93.82-2.9,3.01.1,8.69.04,17.37.04,26.06Z"/><path class="cls-1" d="m277.43,509.26c.29,2.53.62,4.26.66,6,.09,3.98.11,7.98,0,11.96-.06,2.17.59,3.06,2.93,2.99,5.61-.15,11.23.04,16.85-.07,1.98-.04,2.55.8,2.53,2.56-.03,3.26-.09,6.52.04,9.78.08,2.03-.72,2.71-2.7,2.67-5.07-.1-10.15.09-15.22-.14-2.4-.11-4.26.21-5.17,2.19.3,1.68.72,3.04.75,4.41.08,4.26.07,8.52-.01,12.77-.04,2.03.6,2.97,2.81,2.86,3.25-.15,6.53-.14,9.78.02,2.53.12,3.38-.95,3.24-3.37-.21-3.53-.13-3.52,3.43-3.49,3.08.03,6.16.08,9.24,0,1.65-.04,2.24.58,2.22,2.22-.06,5.8-.04,11.6.01,17.4.01,1.44-.33,2.14-1.96,2.14-15.58-.05-31.17-.04-46.75-.01-1.45,0-1.91-.6-1.9-1.94.03-3.81-.06-7.61.07-11.41.02-.55,1.03-1.53,1.54-1.51,2.75.11,3.34-1.28,3.33-3.71-.07-16.49-.04-32.98-.04-49.47q0-4.65-4.86-5.14c0-4.44-.09-8.94.12-13.42.02-.51,1.69-1.35,2.6-1.36,12.59-.09,25.19-.06,37.78-.07,2.72,0,5.44.04,8.15-.03,1.41-.03,1.92.5,1.91,1.91-.05,5.98-.06,11.96.01,17.94.02,1.6-.63,2.04-2.09,2.02-3.53-.05-7.07-.08-10.6.02-1.75.05-2.54-.54-2.32-2.35.11-.9.2-1.83.05-2.71-.1-.59-.62-1.57-.98-1.58-5.2-.1-10.4-.07-15.45-.07Z"/><path class="cls-1" d="m24.02,336.38c3.74,3.56,7.33,7.28,11.25,10.62,3.42,2.9,7.13,5.48,10.85,7.98,3.31,2.23,6.72,4.32,10.24,6.19,5.01,2.65,10.18,5.01,15.26,7.54,4.1,2.04,8.2,4.1,12.26,6.23,4.5,2.35,9.14,4.51,13.38,7.27,4.05,2.64,7.57,6.09,11.51,8.92,4.59,3.3,9.31,6.42,14.15,9.33.93.56,2.68-.23,4.05-.39-.34-1.08-.36-2.48-1.07-3.19-2.36-2.34-4.95-4.45-7.5-6.6-4.78-4.03-8.4-8.97-11.47-14.36-2.16-3.81-4.49-7.53-6.43-11.45-1.02-2.06-1.33-4.45-2-6.69-.73-2.45-1.55-4.87-2.25-7.32-.43-1.53-.75-3.1-1.06-4.66-.99-5.05-1.95-10.11-2.93-15.17-.05-.27-.15-.52-.19-.79-.73-5.14-1.44-10.29-2.21-15.42-.14-.96-.62-1.86-.83-2.81-.31-1.39-.51-2.8-.76-4.21.27-.08.55-.15.82-.23,1.95,2.99,3.87,6,5.85,8.98,1.81,2.73,3.78,5.37,5.5,8.16,2.16,3.49,4.22,7.05,6.16,10.66,1.76,3.26,3.4,6.59,4.9,9.98.85,1.92,1.24,4.03,1.96,6.01.94,2.62,2.05,5.17,3,7.79.69,1.9,1.17,3.88,1.84,5.79,1.8,5.17,3.34,10.46,5.55,15.44,3.61,8.12,7.19,16.33,13.18,23.12,1.61,1.83,3.35,3.55,5,5.99-1.99-.3-3.98-.57-5.96-.92-.51-.09-.96-.55-1.47-.65-3.94-.74-7.9-1.39-11.84-2.14-5.03-.96-10.05-1.98-15.07-2.97-.18-.04-.35-.09-.53-.11-4.4-.62-8.81-1.13-13.18-1.9-1.5-.26-2.9-1.11-4.32-1.73-3.38-1.47-6.82-2.82-10.12-4.47-4.7-2.35-9.42-4.72-13.9-7.45-3.04-1.86-5.74-4.3-8.49-6.6-4.02-3.37-8.09-6.7-11.87-10.34-2.69-2.59-5.02-5.58-7.36-8.51-2.12-2.66-4.14-5.41-6.04-8.23-1.65-2.45-3.12-5.02-4.55-7.6-1.02-1.84-1.87-3.77-2.71-5.7-.47-1.08-.75-2.24-1.12-3.36.17,0,.34-.01.51-.02Z"/><path class="cls-1" d="m497.78,306.17c-.49,1.53-.97,3.07-1.46,4.6-.11.34-.33.66-.37,1.01-.66,5.02-1.33,10.04-1.93,15.07-.61,5.04-.92,10.13-1.8,15.12-.85,4.8-2.04,9.57-3.52,14.22-1.16,3.64-2.89,7.11-4.54,10.58-1.69,3.56-3.37,7.16-5.49,10.47-1.53,2.39-3.79,4.32-5.7,6.46-1.02,1.13-1.91,2.39-3.02,3.42-2.69,2.49-5.41,4.96-8.24,7.29-1.4,1.15-2.65,2.72-1.32,3.97.84.79,3.52.71,4.65-.05,4.97-3.37,9.61-7.21,14.49-10.72,5.05-3.64,10.14-7.25,15.39-10.59,3.18-2.02,6.69-3.52,10.05-5.25,2.92-1.5,5.81-3.06,8.78-4.46,3.04-1.43,6.22-2.58,9.24-4.05,3.53-1.71,7-3.55,10.4-5.5,3.38-1.94,6.67-4.04,9.94-6.16,1.8-1.16,3.46-2.53,5.21-3.77,4.45-3.15,8.42-6.78,11.51-11.31.43-.63.77-1.31,1.43-2.44.33.89.79,1.49.65,1.85-.91,2.37-1.82,4.77-2.99,7.02-1.7,3.28-3.6,6.47-5.46,9.67-.74,1.28-1.45,2.62-2.42,3.72-3.93,4.46-7.94,8.84-11.94,13.25-5.03,5.54-11,9.95-17.19,14.08-3.9,2.6-7.69,5.39-11.73,7.74-2.72,1.58-5.75,2.71-8.74,3.75-4.2,1.46-8.52,2.55-12.73,3.97-5.38,1.82-10.87,2.75-16.54,3.24-4.42.38-8.74,1.89-13.12,2.85-3.19.7-6.4,1.29-9.58,2.02-1.43.33-2.8.88-4.76,1.52,2.12-2.82,3.98-5.16,5.7-7.61,2.24-3.17,4.44-6.37,6.51-9.65,1.65-2.62,3.17-5.33,4.59-8.08.81-1.56,1.37-3.26,1.92-4.94.73-2.22,1.23-4.52,2.01-6.73,1.22-3.45,2.69-6.81,3.88-10.27,1.12-3.26,2-6.61,3.03-9.9.5-1.59,1.07-3.16,1.66-4.71,1.68-4.42,3.05-9.01,5.18-13.21,2.42-4.77,5.51-9.21,8.36-13.76,2.95-4.71,5.97-9.39,8.97-14.08l1.07.39Z"/><path class="cls-1" d="m.05,256.63c3.99,7.27,7.79,14.16,12.66,20.58,5.1,6.73,10.98,12.58,17.05,18.36,4.73,4.5,9.43,9.1,13.59,14.11,4.28,5.14,7.91,10.82,11.79,16.29,3.76,5.3,7.37,10.71,11.29,15.89.55.73,2.66.93,3.7.5,1.45-.59,1.29-1.87.36-3.35-2.16-3.43-4.14-6.99-5.91-10.63-1.84-3.78-3.34-7.72-4.99-11.6-.07-.16-.09-.35-.12-.52-.57-4.85-1.28-9.69-1.65-14.56-.25-3.24-.36-6.56.08-9.77.66-4.86,1.85-9.66,2.82-14.48.11-.53.18-1.07.29-1.6,1.11-5.51,2.24-11.01,3.32-16.52.21-1.06.3-2.15.32-3.23.05-2.51.01-5.02.6-7.61.71,1.93,1.66,3.81,2.09,5.8.85,3.94,1.13,8.02,2.16,11.91,1.08,4.09.99,8.39,2.07,12.31,1.04,3.77.36,7.55,1.31,11.08,2.1,7.79,1.14,15.71,1.76,23.56.34,4.37.83,8.74,1.56,13.06.79,4.64,1.8,9.26,2.95,13.83,1.1,4.38,2.38,8.73,3.83,13.01.64,1.89,1.97,3.54,2.83,5.38.37.78.33,1.75.57,3.26-5.6-3.68-10.52-7.09-15.61-10.22-3.38-2.07-7.09-3.6-10.48-5.65-2.39-1.44-4.46-3.4-6.75-5.01-4.01-2.82-8.16-5.44-12.11-8.34-7.48-5.48-14.11-11.93-20.03-19.02-3.03-3.63-5.49-7.78-7.89-11.88-2.9-4.94-5.55-10.03-8.14-15.13-.86-1.69-1.3-3.61-1.76-5.46-.71-2.9-1.4-5.82-1.88-8.77-.66-4.05-1.15-8.14-1.65-12.21-.14-1.11-.02-2.25-.02-3.38Z"/><path class="cls-1" d="m519.65,249.74c.53,2.46,1.04,4.93,1.61,7.38.92,3.93,1.88,7.84,2.83,11.76.06.26.25.5.28.76.65,4.67.9,9.44,2.02,14,1.62,6.6,1.95,13.28,1.27,19.88-.49,4.79-.7,9.76-2.8,14.37-1.51,3.32-2.23,7-3.7,10.34-1.17,2.67-2.98,5.05-4.42,7.6-.55.98-1.35,2.18-1.17,3.12.17.88,1.38,1.82,2.33,2.15.41.14,1.42-1.11,2-1.85,2.25-2.86,4.5-5.74,6.65-8.68,2.85-3.91,5.69-7.83,8.4-11.84,7.52-11.16,16.84-20.71,26.45-30.03,3.25-3.15,6.63-6.21,9.46-9.71,3.53-4.37,6.84-8.97,9.67-13.81,2.06-3.52,3.18-7.58,4.79-11.56.12.58.46,1.36.39,2.09-.54,5.29-.94,10.61-1.85,15.83-.55,3.18-1.89,6.23-2.98,9.3-1.08,3.03-2.15,6.08-3.49,9.01-1.73,3.8-3.51,7.6-5.65,11.17-2.26,3.78-4.74,7.49-7.54,10.88-5.31,6.43-11.37,12.11-18.12,17.04-3.86,2.82-7.68,5.71-11.61,8.41-5.16,3.55-10.36,7.05-15.66,10.38-3.93,2.48-8.1,4.57-12.05,7.02-2.28,1.42-4.32,3.21-7.07,4.73.57-1.49,1.09-3,1.72-4.47,1.02-2.39,2.16-4.72,3.17-7.11,2.08-4.94,2.49-10.25,3.61-15.41,2.43-11.24,2.84-22.57,3.54-33.95.45-7.34,1.73-14.62,2.63-21.93.16-1.26.3-2.51.45-3.77.63-5.04,1.14-10.09,1.95-15.1.43-2.66,1.38-5.24,2.1-7.85.26-.05.51-.09.77-.14Z"/><path class="cls-1" d="m71.43,404.61c3,1.92,5.48,3.69,8.14,5.16,2.13,1.17,4.45,2,6.71,2.93,2.39.98,4.8,1.89,7.21,2.84.17.07.32.19.49.22,3.55.66,7.08,1.58,10.66,1.92,8.98.84,17.98,1.4,26.98,2.12,6.28.51,12.58.91,18.83,1.7,5.39.69,10.72,1.86,16.08,2.82.27.05.53.1.8.13,5.87.65,11.74,1.24,17.6,1.96,1.85.23,3.74,1.26,5.17-1.2-1.01-3.47-4.54-3.5-7.22-4.16-4.8-1.19-9.26-3.03-13.79-4.98-7.34-3.17-13.31-7.94-18.23-13.98-3.03-3.72-5.51-7.93-7.86-12.13-2.45-4.38-4.39-9.03-6.66-13.51-1.72-3.4-3.62-6.72-5.39-10.1-.16-.3.05-.8.09-1.21.4.07.91,0,1.18.23,3.9,3.35,7.8,6.69,11.62,10.12,6.15,5.53,12.32,11.06,18.33,16.74,3.4,3.21,6.3,6.95,9.81,10.02,4.22,3.69,8.72,7.09,13.33,10.27,4.42,3.05,9.06,5.81,13.75,8.43,1.88,1.05,4.15,1.39,6.24,2.05,2.47.78,4.93,1.57,7.71,2.87-2.37.6-4.75,1.19-7.12,1.79-3.8.97-7.6,1.94-11.41,2.91-.61.15-1.24.22-1.84.39-3.38.97-6.74,1.99-10.12,2.93-2.14.6-4.3,1.14-6.47,1.63-3.56.81-7.12,1.7-10.72,2.29-4.34.71-8.72,1.48-13.1,1.62-6.24.21-12.52.18-18.73-.33-4.15-.34-8.21-1.68-12.3-2.63-2.78-.64-5.59-1.2-8.28-2.12-4.6-1.56-9.22-3.02-13.29-5.93-3.86-2.76-8.35-4.68-12.04-7.63-5.49-4.4-10.52-9.36-15.69-14.14-.34-.31-.26-1.07-.47-2.06Z"/><path class="cls-1" d="m456.09,363.37c-1.57,3.29-3.05,6.35-4.5,9.42-2.35,4.98-4.55,10.03-7.04,14.93-2.11,4.13-4.02,8.55-6.97,12.02-3.53,4.16-7.9,7.67-12.23,11.05-3.11,2.42-6.7,4.25-10.18,6.14-1.6.87-3.42,1.37-5.2,1.83-3,.77-6.04,1.38-9.06,2.05-.35.08-.85-.02-1.05.19-.83.86-1.57,1.81-2.34,2.72,1.06.82,2.01,2.07,3.19,2.35,1.17.27,2.57-.42,3.85-.74.43-.1.81-.45,1.24-.5,5.77-.67,11.56-1.22,17.33-1.97,7.02-.91,14.01-2.03,21.02-2.95,2.42-.32,4.88-.26,7.32-.43,8.65-.61,17.32-1.03,25.93-1.97,4.06-.44,8-1.91,12.01-2.88.78-.19,1.64-.06,2.4-.3,2.67-.83,5.36-1.61,7.94-2.67,2.91-1.2,5.71-2.66,8.54-4.05,1.28-.63,2.52-1.35,3.78-2.03.23.32.46.63.69.95-3.01,3.05-5.89,6.23-9.06,9.1-4.62,4.17-9.52,7.96-15.24,10.64-4.01,1.88-7.7,4.54-11.83,6.04-4.72,1.72-9.97,2.02-14.61,3.87-6.89,2.75-14.12,1.2-21.11,2.61-3.73.75-7.85-.68-11.79-.71-5.75-.04-11.08-1.7-16.47-3.4-3.11-.98-6.4-1.34-9.55-2.2-2.7-.74-5.3-1.8-7.95-2.71-.26-.09-.5-.21-.77-.26-3.38-.62-6.78-1.17-10.15-1.86-3.88-.8-7.73-1.71-11.72-2.6,4.57-1.29,9.22-2.27,13.61-3.93,3.88-1.46,7.6-3.46,11.17-5.6,2.79-1.67,5.31-3.85,7.82-5.94,3.69-3.07,7.41-6.12,10.86-9.45,7.77-7.5,15.3-15.25,23.09-22.73,4.75-4.57,9.77-8.85,14.73-13.19.61-.53,1.62-.6,2.32-.84Z"/><path class="cls-1" d="m40.55,272.54c-2.5-4.66-3.14-9.76-3.43-14.97-.1-1.87-.69-3.71-.91-5.57-.14-1.15-.14-2.35,0-3.5.37-2.94.7-5.91,1.32-8.8.82-3.77,1.84-7.49,2.9-11.2.55-1.92,1.19-3.85,2.06-5.65,1.76-3.65,3.64-7.24,5.6-10.79,2.06-3.74,4.25-7.41,6.42-11.08,1.97-3.33,4.11-6.57,5.96-9.96,1.21-2.23,2.04-4.68,3.38-7.81.21,1.85.52,2.96.43,4.05-.61,7.16-1.11,14.33-2.07,21.44-.49,3.61-1.96,7.07-2.83,10.64-.75,3.08-1.19,6.25-1.94,9.33-.69,2.82-1.59,5.59-2.45,8.37-.91,2.96-1.86,5.91-2.82,8.86-.82,2.53-1.73,5.03-2.51,7.57-.85,2.79-1.49,5.65-2.41,8.42-3.28,9.84-1.26,19.98-1.79,29.98-.03.49-.19.97-.4,1.95-2.56-3.45-4.8-6.54-7.13-9.56-2.15-2.8-4.39-5.53-6.6-8.28-4.64-5.76-9.58-11.31-13.83-17.34-2.95-4.19-5.09-8.97-7.34-13.61-1.84-3.78-3.55-7.67-4.91-11.65-.98-2.89-1.26-6.01-1.92-9.01-.95-4.38-1.97-8.74-2.93-13.12-.17-.79-.23-1.61-.23-2.42-.05-5.34-.32-10.7-.04-16.03.35-6.81,1.13-13.6,1.76-20.39.03-.3.31-.57,1.11-.89.59,3.43,1.06,6.9,1.81,10.29.79,3.57,1.75,7.12,2.84,10.62,1.1,3.52,2.32,7.03,3.76,10.42,1.31,3.08,3.03,5.99,4.51,9,1.41,2.85,2.8,5.72,4.1,8.62,1.03,2.29,1.93,4.63,2.84,6.97.67,1.73,1.36,3.47,1.86,5.26,1.36,4.8,2.17,9.82,4.06,14.4,1.48,3.59.96,7.25,1.8,10.74,1.21,4.98,3.08,9.81,4.77,14.67.63,1.81,2.91,1.81,5.21.06Z"/><path class="cls-1" d="m540.53,291.42c0-5.95-.12-11.91.04-17.86.14-5.05-1.61-9.59-3.14-14.24-.94-2.85-1.52-5.81-2.39-8.69-.9-2.98-2.01-5.9-2.93-8.88-.71-2.27-1.31-4.57-1.88-6.88-.81-3.27-1.48-6.56-2.32-9.82-.97-3.79-2.07-7.54-3.09-11.32-1.05-3.84-2.44-7.63-3.02-11.54-.93-6.26-1.33-12.61-1.92-18.92-.04-.39.23-.81.35-1.2,1.42,2.46,2.8,4.79,4.12,7.15,2.08,3.73,4.01,7.56,6.19,11.23,3.47,5.84,7.29,11.49,10.6,17.41,1.75,3.12,2.58,6.74,4.09,10.01,4.68,10.15,3.39,20.89,3,31.47-.11,3.09-1.72,6.17-2.87,9.17-.67,1.76-.03,4.25,1.92,4.48.94.11,2.57-1.21,3.04-2.26,3.17-7.17,4.52-14.78,5.5-22.53.63-4.97,1.88-9.93,3.44-14.71,1.94-5.92,4.36-11.7,6.81-17.43,1.83-4.29,4.18-8.36,6.05-12.63,1.47-3.34,2.54-6.86,3.82-10.29.51-1.38,1.3-2.68,1.62-4.1,1.27-5.6,2.39-11.22,3.59-16.83.05-.21.3-.38.46-.57.19.15.41.23.43.36,2.78,13.75,2.88,27.64,1.74,41.53-.33,4.04-1.86,7.99-2.84,11.98-.69,2.83-1.32,5.68-2.09,8.49-.44,1.59-.94,3.22-1.72,4.66-2.71,4.96-4.43,10.31-7.93,15.06-4.04,5.48-8.11,10.96-12.29,16.34-3.11,4-6.57,7.75-9.59,11.81-2.3,3.08-4.17,6.49-6.23,9.75l-.57-.2Z"/><path class="cls-1" d="m80.85,124.39c0,1.16.24,2.18-.04,3.02-1.57,4.69-2.82,9.56-5.04,13.94-2.88,5.71-5.07,11.79-9.24,16.89-3.39,4.15-5.95,8.96-9.09,13.32-2.52,3.5-5.54,6.64-7.98,10.19-2.14,3.11-3.75,6.59-5.65,9.87-1.29,2.22-2.77,4.34-4,6.59-1.62,2.95-3.24,5.92-4.55,9.02-.88,2.08-1.16,4.42-1.87,6.59-.17.53-.96,1.13-1.49,1.16-.39.02-1.06-.8-1.19-1.35-1.26-5.22-2.09-10.57-3.74-15.66-1.9-5.85-4.28-11.57-6.88-17.15-1.48-3.19-2.85-6.21-3.29-9.8-.5-4.18-1.87-8.25-2.82-12.37-.18-.78-.21-1.62-.21-2.43-.04-4.62-.28-9.25-.01-13.86.31-5.36.82-10.74,1.74-16.03.7-4.05,1.69-8.17,3.37-11.89,2.89-6.38,6.45-12.46,9.68-18.68.39-.74.54-1.6.8-2.4.24.02.48.05.72.07,0,1.23.19,2.49-.04,3.67-.44,2.24-1.58,4.42-1.6,6.63-.08,8.15-.49,16.38.58,24.41.53,4.02.43,8.28,1.62,12.08,2.35,7.49.9,15.03,1.29,22.52.21,4.06.62,8.28-.19,12.2-1.11,5.33-1.25,10.64-1.49,16-.11,2.56,1.2,3.06,3.13,2.52.79-.22,1.68-1.27,1.88-2.1.35-1.47-.02-3.11.31-4.59.94-4.16,1.81-8.36,3.22-12.37,1.51-4.27,3.17-8.62,5.57-12.42,2.45-3.88,5.71-7.31,8.92-10.63,5.41-5.6,11-11.03,16.63-16.41,2.1-2,4.64-3.53,6.77-5.5,1.48-1.37,2.6-3.12,4.17-5.06Z"/><path class="cls-1" d="m552.65,213.67c-.67-1.79-1.27-3.62-2.04-5.38-1.86-4.27-3.55-8.65-5.77-12.73-2.22-4.07-4.86-7.93-7.56-11.71-3.45-4.83-7.17-9.48-10.74-14.23-2.82-3.76-5.87-7.39-8.3-11.39-3.13-5.15-5.99-10.5-8.53-15.96-2.45-5.27-4.36-10.78-6.46-16.21-.24-.62-.13-1.38.39-2.47,1.88,1.99,3.66,4.07,5.65,5.94,2.63,2.47,5.47,4.71,8.11,7.17,4.05,3.78,8.18,7.5,11.97,11.53,3.88,4.13,7.66,8.41,10.98,13,2.07,2.86,3.3,6.36,4.73,9.64,1.14,2.61,2.09,5.32,3.01,8.02.31.92.2,1.96.38,2.94.53,2.96,1.02,5.93,1.76,8.83.13.52,1.59,1.23,2.05,1.02.79-.37,1.79-1.39,1.8-2.14.04-4.16.3-8.42-.45-12.47-1.98-10.79-1.69-21.63-1.14-32.45.29-5.67,1.78-11.29,2.71-16.93.18-1.07.37-2.15.38-3.23.08-5.34.3-10.7.08-16.03-.16-3.73-.97-7.42-1.43-11.14-.15-1.22-.13-2.46.42-3.89.9,1.81,1.76,3.65,2.72,5.43,1.14,2.14,2.45,4.2,3.53,6.37,1.04,2.08,1.91,4.24,2.8,6.38,1,2.4,2,4.81,2.88,7.25.77,2.15,1.53,4.33,2,6.56,1.3,6.15,2.28,12.34,1.92,18.68-.15,2.62.22,5.3-.15,7.87-.76,5.2-1.8,10.35-2.85,15.5-.58,2.86-1.37,5.68-2.16,8.49-.45,1.6-1.05,3.17-1.7,4.71-.91,2.17-2.02,4.25-2.89,6.43-.8,2.02-1.43,4.11-2.1,6.18-1.58,4.91-3.23,9.8-4.67,14.74-.53,1.81-.57,3.76-.84,5.64-.16,0-.32,0-.48,0Z"/><path class="cls-1" d="m346.21,508.9c-5.06.65-5.03.65-5.03,5.58.01,15.94,0,31.88,0,47.81,0,5-.01,4.99,4.89,4.92,2.08-.03,4.17-.09,6.25.04,2.05.12,2.91-.58,2.92-2.75,0-4.14.11-4.13,4.32-4.1,2.72.02,5.44.08,8.15-.02,1.81-.07,2.64.48,2.61,2.44-.09,5.7-.09,11.41-.04,17.11.01,1.63-.56,2.22-2.22,2.21-14.76-.05-29.52-.06-44.28,0-1.89,0-2.54-.64-2.49-2.53.09-3.35.08-6.71-.1-10.05-.1-1.75.29-2.61,2.17-2.37,2.24.28,3-.73,2.99-2.95-.06-17.48-.05-34.95,0-52.43,0-1.98-.61-2.91-2.65-2.64-1.71.22-2.48-.45-2.45-2.26.07-3.53.05-7.06-.02-10.59-.03-1.65.67-2.23,2.27-2.22,6.88.03,13.76-.05,20.64.04.7,0,1.96.87,1.98,1.38.16,4.41.09,8.84.09,13.39Z"/><path class="cls-1" d="m42.79,146.4c-.18-1.32-.38-2.1-.39-2.88-.03-7.69.69-15.48-.23-23.06-1.05-8.64-1.55-17.24-1.07-25.88.16-2.87,1.6-5.68,2.51-8.5.62-1.91,1.3-3.81,2.02-5.68,3.15-8.17,7.89-15.3,14.41-21.14,3.08-2.76,6.46-5.18,9.77-7.66.7-.52,1.71-.63,2.67-.96-2.55,4.23-5.1,8.05-7.2,12.12-1.32,2.55-1.97,5.46-2.9,8.21-.97,2.9-1.9,5.81-2.85,8.71-.08.26-.21.5-.25.77-.63,3.94-1.11,7.9-1.9,11.81-.63,3.12-1.56,6.18-2.45,9.24-.89,3.07-1.83,6.13-2.83,9.17-.78,2.35-1.74,4.64-2.54,6.98-.83,2.42-1.56,4.87-2.32,7.3-.34,1.07-.66,2.13-1.04,3.38.44.47,1.04,1.12,1.63,1.74,3.23-.29,3.64-3.19,4.44-5.25,3.74-9.64,10.72-16.65,18.36-23.09,4.78-4.03,9.58-8.22,14.94-11.35,7.26-4.24,13.5-9.44,18.72-15.99.27.06.54.13.81.19-.12,1.28.03,2.67-.4,3.84-4.06,10.96-10.07,20.59-19.25,28.07-3.85,3.14-7.51,6.49-11.36,9.63-5.99,4.89-12.24,9.45-18.01,14.58-3.35,2.98-5.98,6.77-8.91,10.22-1.35,1.6-2.62,3.28-4.39,5.49Z"/><path class="cls-1" d="m511.47,48.93c1.52.83,3.21,1.46,4.52,2.53,3.79,3.11,7.85,6.05,11.02,9.72,3.15,3.66,5.68,7.97,7.89,12.29,2.44,4.79,4.34,9.87,6.18,14.92.62,1.71.49,3.75.48,5.64-.02,11.4-.12,22.8-.15,34.21-.01,4.34.09,8.69.14,13.03,0,.85,0,1.69,0,3.15-2.94-3.53-5.24-6.6-7.87-9.37-4.67-4.92-8.98-10.24-14.95-13.78-1.16-.68-1.9-2.03-2.99-2.87-6.67-5.13-13.46-10.1-20.03-15.36-1.96-1.57-3.39-3.83-4.96-5.85-1.87-2.42-3.74-4.86-5.42-7.41-1.69-2.57-3.29-5.23-4.67-7.98-1.7-3.41-3.15-6.95-4.66-10.46-.16-.36-.02-.86-.02-2.04,2.53,3.14,4.4,6.02,6.81,8.34,3.2,3.09,6.68,5.96,10.29,8.55,4.45,3.19,9.38,5.75,13.73,9.06,4.99,3.81,9.76,7.95,14.28,12.31,4.89,4.73,8.23,10.57,10.61,16.97,1.14,3.06,3.18,3.59,6.48,1.74-1.49-3.38-3.07-6.77-4.48-10.23-.72-1.77-1.17-3.65-1.69-5.5-1.24-4.48-2.51-8.95-3.66-13.46-1.6-6.29-3.11-12.61-4.66-18.92-.76-3.09-1.28-6.26-2.33-9.25-1.2-3.42-2.69-6.76-4.37-9.97-1.7-3.24-3.79-6.28-5.71-9.41.05-.21.11-.42.16-.63Z"/><path class="cls-1" d="m129.12,23.43c-4.01,4.74-7.6,8.75-10.93,12.96-3.77,4.77-7.59,9.56-10.89,14.65-3.61,5.58-7.35,10.99-12.21,15.56-4.2,3.95-8.31,7.99-12.6,11.85-2.75,2.48-5.71,4.71-8.62,7.01-.53.42-1.27.58-2.35.61,1.76-13.74,7.3-26.1,15.67-36.8,10.55-13.5,25.3-20.95,41.92-25.84Z"/><path class="cls-1" d="m453.15,21.39c10.92,4.49,21.69,7.79,30.55,14.69,16.18,12.61,24.71,29.87,28.39,49.87-5.34-4.57-10.76-9.06-16.01-13.73-4.11-3.65-8.36-7.23-11.91-11.38-3.84-4.49-6.85-9.68-10.37-14.45-2.85-3.86-5.78-7.69-8.94-11.3-3.56-4.07-7.43-7.87-11.15-11.81-.21-.22-.2-.64-.56-1.9Z"/></svg>