<?xml version="1.0" encoding="UTF-8"?><svg id="Layer_2" xmlns="http://www.w3.org/2000/svg" viewBox="0 0 88.61 95.66"><g id="Layer_5"><path d="m44.3,0C19.84,0,0,19.84,0,44.3s19.84,44.3,44.3,44.3,44.3-19.84,44.3-44.3S68.77,0,44.3,0Zm23.53,73.82H21.87v-10.54l22.01-20.58c1.63-1.46,2.81-2.77,3.54-3.92s1.22-2.18,1.48-3.08c.25-.9.38-1.77.38-2.61,0-1.86-.63-3.32-1.9-4.39-1.26-1.07-3.16-1.6-5.69-1.6-2.14,0-4.12.48-5.95,1.43-1.83.96-3.33,2.36-4.51,4.22l-12.4-6.83c2.14-3.71,5.29-6.69,9.45-8.94,4.16-2.25,9.13-3.37,14.93-3.37,4.55,0,8.54.75,11.97,2.24,3.43,1.49,6.11,3.56,8.05,6.2,1.94,2.64,2.91,5.82,2.91,9.53,0,1.86-.25,3.74-.76,5.65-.51,1.91-1.48,3.92-2.91,6.03s-3.56,4.46-6.37,7.04l-11.09,10.29h22.81v13.24Z"/></g></svg>