<?xml version="1.0" encoding="UTF-8"?><svg id="Layer_2" xmlns="http://www.w3.org/2000/svg" viewBox="0 0 88.61 96.66"><g id="Layer_5"><path d="m44.3,0C19.84,0,0,19.84,0,44.3s19.84,44.3,44.3,44.3,44.3-19.84,44.3-44.3S68.77,0,44.3,0Zm21.28,65.83c-1.83,3.01-4.62,5.45-8.39,7.34-3.77,1.88-8.63,2.83-14.59,2.83-4.1,0-8.21-.49-12.31-1.48-4.1-.98-7.62-2.43-10.54-4.34l5.99-12.48c2.36,1.52,4.99,2.7,7.88,3.54,2.89.84,5.72,1.27,8.48,1.27s5.14-.53,6.83-1.6c1.69-1.07,2.53-2.58,2.53-4.55,0-1.8-.7-3.21-2.11-4.22-1.41-1.01-3.71-1.52-6.92-1.52h-7v-10.46l10.49-11.38h-23.31v-12.99h42.75v10.54l-12.16,13.06c3.82.76,6.95,2.18,9.37,4.27,3.82,3.29,5.73,7.52,5.73,12.69,0,3.32-.91,6.48-2.74,9.49Z"/></g></svg>