<?xml version="1.0" encoding="UTF-8"?><svg id="Layer_2" xmlns="http://www.w3.org/2000/svg" viewBox="0 0 88.61 95.66"><g id="Layer_5"><path d="m44.3,0C19.84,0,0,19.84,0,44.3s19.84,44.3,44.3,44.3,44.3-19.84,44.3-44.3S68.77,0,44.3,0Zm20.91,64.67c-1.83,3.06-4.62,5.55-8.39,7.46-3.77,1.91-8.6,2.87-14.5,2.87-4.16,0-8.28-.49-12.35-1.48-4.08-.98-7.63-2.43-10.67-4.34l6.16-12.48c2.36,1.52,4.96,2.7,7.8,3.54,2.84.84,5.64,1.27,8.39,1.27s5.17-.53,6.92-1.6c1.74-1.07,2.61-2.61,2.61-4.64,0-1.18-.32-2.22-.97-3.12-.65-.9-1.81-1.6-3.5-2.11s-4.02-.76-7-.76h-16.02l2.95-34.49h37.61v12.99h-23.8l-.71,8.52h3.94c5.85,0,10.54.83,14.08,2.49,3.54,1.66,6.13,3.89,7.76,6.7,1.63,2.81,2.45,5.96,2.45,9.44s-.91,6.68-2.74,9.74Z"/></g></svg>