<?xml version="1.0" encoding="UTF-8"?><svg id="Layer_2" xmlns="http://www.w3.org/2000/svg" viewBox="0 0 303.3 69.46"><g id="Layer_5"><path d="m78.86,30.74c-.98-.56-2.09-.84-3.34-.84s-2.37.28-3.36.84c-.99.56-1.78,1.37-2.38,2.42-.59,1.06-.89,2.34-.89,3.84s.3,2.75.89,3.84c.59,1.09,1.38,1.91,2.38,2.47.99.56,2.1.84,3.31.84,1.28,0,2.41-.28,3.38-.84.98-.56,1.76-1.38,2.35-2.47.59-1.09.89-2.37.89-3.84s-.3-2.78-.89-3.84c-.59-1.06-1.38-1.86-2.35-2.42Zm33.12,0c-.98-.56-2.09-.84-3.34-.84s-2.37.28-3.36.84c-.99.56-1.78,1.37-2.38,2.42-.59,1.06-.89,2.34-.89,3.84s.3,2.74.89,3.82c.59,1.07,1.38,1.9,2.38,2.47.99.58,2.11.86,3.36.86s2.36-.29,3.34-.86,1.76-1.4,2.35-2.47c.59-1.07.89-2.34.89-3.82s-.3-2.78-.89-3.84c-.59-1.06-1.38-1.86-2.35-2.42Zm38.98,6.07h10.65l-5.33-12.81-5.33,12.81ZM268.57,0H34.73C15.55,0,0,15.55,0,34.73s15.55,34.73,34.73,34.73h233.84c19.18,0,34.73-15.55,34.73-34.73S287.75,0,268.57,0ZM59.59,22.65h-10.75v27.26h-7.78v-27.26h-10.75v-6.34h29.28v6.34Zm28.27,21.22c-1.22,1.98-2.9,3.55-5.04,4.7-2.14,1.15-4.59,1.73-7.34,1.73s-5.14-.58-7.27-1.73c-2.13-1.15-3.8-2.73-5.02-4.73-1.22-2-1.82-4.28-1.82-6.84s.61-4.89,1.82-6.89c1.22-2,2.89-3.57,5.02-4.7,2.13-1.14,4.55-1.7,7.27-1.7s5.2.57,7.34,1.7c2.14,1.14,3.82,2.7,5.04,4.7,1.22,2,1.82,4.3,1.82,6.89s-.61,4.88-1.82,6.86Zm33.24.17c-1.14,1.97-2.67,3.5-4.61,4.61-1.94,1.1-4.14,1.66-6.6,1.66-2.14,0-4.03-.48-5.66-1.44-.77-.45-1.45-1.03-2.06-1.71v12.07h-7.49V24.09h7.15v3.01c.65-.79,1.41-1.44,2.28-1.95,1.65-.96,3.58-1.44,5.78-1.44,2.46,0,4.66.55,6.6,1.66,1.94,1.1,3.47,2.65,4.61,4.63,1.14,1.98,1.7,4.32,1.7,7.01s-.57,5.06-1.7,7.03Zm45.96,5.88l-2.99-7.2h-15.56l-2.99,7.2h-7.97l14.93-33.6h7.68l15.07,33.6h-8.16Zm27.17-19.25c-.29-.06-.57-.11-.84-.14-.27-.03-.54-.05-.79-.05-2.11,0-3.79.59-5.04,1.78-1.25,1.18-1.87,3.01-1.87,5.47v12.19h-7.49v-25.82h7.15v3.44c.71-.98,1.59-1.79,2.69-2.4,1.7-.94,3.76-1.42,6.19-1.42v6.96Zm18.55,19.22c-1.07.27-2.18.41-3.34.41-3.04,0-5.41-.78-7.1-2.33-1.7-1.55-2.54-3.86-2.54-6.94v-10.61h-3.98v-5.76h3.98v-6.29h7.54v6.29h6.38v5.76h-6.38v10.46c0,1.09.28,1.94.84,2.54.56.61,1.32.91,2.28.91,1.22,0,2.24-.32,3.07-.96l1.97,5.28c-.74.54-1.64.95-2.71,1.22Zm14.52.02h-7.49v-25.82h7.49v25.82Zm-.34-30.65c-.86.82-2,1.22-3.41,1.22s-2.54-.4-3.41-1.2-1.3-1.79-1.3-2.98.43-2.18,1.3-2.98c.86-.8,2-1.2,3.41-1.2s2.5.38,3.38,1.13c.88.75,1.32,1.72,1.32,2.9,0,1.25-.43,2.28-1.3,3.1Zm26.74,27.07c-.96,1.23-2.34,2.2-4.15,2.9-1.81.7-4.01,1.06-6.6,1.06-2.21,0-4.32-.26-6.34-.79-2.02-.53-3.63-1.19-4.85-1.99l2.45-5.33c1.22.7,2.63,1.29,4.25,1.75,1.62.46,3.21.7,4.78.7,1.73,0,2.95-.21,3.67-.62.72-.42,1.08-.99,1.08-1.73,0-.61-.28-1.06-.84-1.37-.56-.3-1.3-.54-2.21-.7-.91-.16-1.93-.32-3.05-.48s-2.23-.38-3.34-.67c-1.1-.29-2.13-.7-3.07-1.22-.94-.53-1.7-1.25-2.26-2.18-.56-.93-.84-2.13-.84-3.6,0-1.63.48-3.08,1.44-4.34.96-1.26,2.32-2.25,4.08-2.95,1.76-.7,3.89-1.06,6.38-1.06,1.79,0,3.59.2,5.4.6,1.81.4,3.34.95,4.58,1.66l-2.54,5.33c-1.22-.7-2.46-1.2-3.72-1.49-1.26-.29-2.47-.43-3.62-.43-1.73,0-2.98.22-3.74.67-.77.45-1.15,1.02-1.15,1.73,0,.64.29,1.13.86,1.46s1.33.58,2.26.74,1.95.32,3.07.48,2.22.38,3.31.67c1.09.29,2.1.7,3.05,1.22.94.53,1.7,1.26,2.26,2.18.56.93.84,2.13.84,3.6,0,1.57-.48,2.97-1.44,4.2Zm19.89,3.55c-1.07.27-2.18.41-3.34.41-3.04,0-5.41-.78-7.1-2.33-1.7-1.55-2.54-3.86-2.54-6.94v-10.61h-3.98v-5.76h3.98v-6.29h7.54v6.29h6.38v5.76h-6.38v10.46c0,1.09.28,1.94.84,2.54.56.61,1.32.91,2.28.91,1.22,0,2.24-.32,3.07-.96l1.97,5.28c-.74.54-1.64.95-2.71,1.22Z"/></g></svg>