<?xml version="1.0" encoding="UTF-8"?><svg id="Layer_2" xmlns="http://www.w3.org/2000/svg" viewBox="0 5 189.19 270.26"><defs><style>.cls-1{fill:#fff;}.cls-2{fill:#ffb5c2;}</style></defs><g id="ribbon"><path class="cls-2" d="m58.51,149.86c-17.72-10.32-29.72-17.31-38.01-31.97-2.77-4.89-12.28-21.71-6.8-37.99,3.65-10.84,10.27-10.53,13.46-21.6,4.24-14.67-6-20.02-2.92-33.98C26.84,12.53,36.53,5.55,42.33.24c-8.48.67-17.44.35-26.19-.24-1.42,2.01-2.66,4.24-3.57,6.74-6.11,16.6,7.71,27.71,3.4,48.77-3.08,15.09-11.15,14.19-14.74,28.92-4.96,20.37,6.26,39.35,14.18,52.74,14.68,24.83,35.15,39.22,48.84,46.91l30.49-17.61c-9.21-3.18-21.99-8.32-36.22-16.61Z"/><path class="cls-1" d="m63.55,265.25c-1.81,0-3.62-.02-5.43,0-2.82.04-5.55-.53-8.28-1.13-10.08-2.21-19.1-6.61-26.95-13.3-5.17-4.41-9.65-9.46-13.24-15.3-3.15-5.12-5.52-10.56-7.16-16.32-1.01-3.55-1.67-7.18-2-10.86-.19-2.1-.37-4.22-.3-6.32.09-2.79.38-5.57.68-8.34.59-5.48,2.18-10.7,4.25-15.78,2.42-5.94,5.8-11.32,9.9-16.25,4-4.8,8.65-8.88,13.88-12.3,5.67-3.71,11.74-6.51,18.31-8.16,2.99-.75,6.05-1.32,9.11-1.74,2.18-.3,4.4-.22,6.61-.31,3.2-.12,6.39.02,9.56.5,4.72.71,9.34,1.86,13.79,3.59,5.53,2.15,10.69,4.97,15.39,8.58,3.39,2.61,6.56,5.47,9.39,8.72,4.67,5.37,8.43,11.29,11.09,17.88,1.73,4.27,3.09,8.67,3.76,13.24.37,2.5.55,5.03.82,7.55.24,2.15.31,4.29-.07,6.45-.26,1.49-.16,3.05-.34,4.56-.6,4.96-1.79,9.77-3.55,14.46-1.88,5-4.43,9.63-7.44,14.03-2.38,3.47-5.21,6.53-8.22,9.46-6.02,5.87-13,10.23-20.84,13.26-4.93,1.9-10.01,3.21-15.27,3.75-1.84.19-3.71.03-5.57.03-.63,0-1.27,0-1.9,0,0,.02,0,.04,0,.06Zm40.03-69.36c2.34-.02,4.05-.72,5.19-2.39,1.83-2.68,1.46-7.09-2.04-9.07-4.86-2.75-9.93-5.02-15.24-6.71-3.15-1-6.35-1.84-9.57-2.56-3.38-.76-6.81-1.34-10.23-1.88-2.24-.36-4.5-.53-6.76-.74-1.38-.13-2.77-.23-4.15-.24-8.5-.11-17-.2-25.41,1.3-3.69.66-7.32,1.62-10.98,2.47-1.2.28-2.1,1.03-3.03,1.83-1.8,1.55-1.85,6.27-.06,8.13,1.86,1.93,4,2.24,6.39,1.74,2.64-.54,5.23-1.3,7.88-1.8,2.76-.52,5.55-.97,8.35-1.22,3.19-.29,6.41-.38,9.62-.48,1.26-.04,2.53.11,3.79.18,2.95.17,5.9.25,8.84.54,3.31.33,6.64.67,9.9,1.32,3.68.72,7.32,1.68,10.92,2.73,4.79,1.4,9.34,3.4,13.68,5.89,1.01.58,2.04,1.09,2.92.97Zm-54.74,8.27c1.08,0,2.16-.04,3.24,0,2.79.12,5.57.29,8.35.41,4.64.2,9.17,1.14,13.67,2.2,2.09.49,4.16,1.16,6.18,1.9,2.73.99,5.45,2.03,8.1,3.21,1.94.87,3.75,2.05,5.64,3.04,1.83.96,3.57.54,5.14-.62.54-.4,1.1-.99,1.31-1.61,1.07-3.17.47-5.32-2.25-7.01-6.05-3.75-12.62-6.32-19.45-8.23-4.06-1.14-8.18-2.09-12.4-2.54-2.25-.24-4.49-.68-6.75-.87-1.99-.17-3.99-.2-5.99-.14-3.05.09-6.1-.06-9.14.47-1.74.3-3.53.36-5.28.59-3.68.48-7.29,1.34-10.86,2.35-.84.24-1.71.58-2.41,1.09-1.5,1.11-1.83,2.74-1.73,4.52.18,3.11,2.98,5.22,6,4.42,4.02-1.07,8.04-2.09,12.18-2.53,2.14-.23,4.29-.43,6.44-.65Zm4.95,10.38c0,.07,0,.13,0,.2-1.83,0-3.67-.07-5.5.02-1.82.09-3.64.32-5.45.5-.96.1-1.92.17-2.87.35-3.46.63-6.91,1.29-10.36,1.96-1.2.24-1.98,1.02-2.45,2.12-.42.98-.41,1.95-.24,3.01.32,2.01,2.96,3.2,4.48,2.87,2.4-.52,4.8-1.09,7.22-1.46,3.29-.5,6.59-.92,9.9-1.19,2.17-.18,4.37.09,6.55-.04,2.67-.16,5.29.18,7.91.49,6.67.77,13.07,2.55,19.12,5.49,1.81.88,3.54,1.93,5.33,2.86,2.02,1.05,4.66.07,5.35-1.95.72-2.09.08-4.07-1.72-5.33-.19-.13-.4-.25-.6-.37-3.63-2.24-7.52-3.95-11.52-5.39-5.35-1.93-10.87-3.11-16.52-3.66-2.87-.28-5.77-.33-8.65-.48Z"/><path class="cls-2" d="m183.25,14.68c-3.72-6.4-8.62-11.08-13.44-14.47h-23.74c10.7,7.86,24.32,21.24,26.97,39.99,2.27,16.03-4.28,30.37-12.85,49.15-5.03,11.02-6.85,10.72-19.66,33.27-20.63,36.3-31.14,54.76-42.15,55.76-5.48.5-6.53-1.99-20.98-4.35-12.4-2.02-22.71-1.99-29.3-1.68,3.04,3.88,12.51,14.95,28.16,17.75,13.15,2.35,23.57-2.32,28.58-4.64,10.04-4.64,17.02-11.49,23.21-19.36,18.69-23.74,13.41-35.09,30.62-63.89,12.71-21.27,18.32-19.44,24.57-36.48,3.38-9.23,11.47-31.27,0-51.04Z"/></g></svg>