<?xml version="1.0" encoding="UTF-8"?><svg id="Layer_2" xmlns="http://www.w3.org/2000/svg" viewBox="0 10 188.4 266.11"><defs><style>.cls-1{fill:#fff;}.cls-2{fill:#ffb5c2;}</style></defs><g id="logo"><path class="cls-2" d="m30.02,0c-5.87,3.29-13.99,9.09-17.51,18.66-6.08,16.53,7.67,27.59,3.39,48.56-3.07,15.02-11.11,14.13-14.68,28.8-4.94,20.28,6.23,39.19,14.12,52.52,14.62,24.73,35,39.06,48.64,46.71l30.36-17.54c-9.17-3.17-21.9-8.29-36.06-16.54-17.64-10.28-29.59-17.24-37.85-31.84-2.76-4.87-12.23-21.62-6.78-37.84,3.63-10.8,10.22-10.48,13.41-21.51,4.22-14.61-5.97-19.94-2.91-33.84,3.99-18.11,24.79-24.82,22.26-31.62C45.55,2.28,42.07-.08,30.02,0Z"/><path class="cls-1" d="m63.29,276.1c-1.8,0-3.61-.02-5.41,0-2.81.04-5.53-.53-8.25-1.13-10.04-2.2-19.02-6.58-26.84-13.24-5.15-4.39-9.61-9.42-13.18-15.23-3.13-5.1-5.5-10.52-7.13-16.25-1-3.53-1.66-7.15-1.99-10.81-.19-2.09-.36-4.2-.29-6.3.09-2.77.38-5.54.68-8.31.59-5.46,2.17-10.66,4.23-15.71,2.41-5.92,5.78-11.28,9.86-16.18,3.98-4.78,8.61-8.84,13.82-12.25,5.64-3.69,11.69-6.49,18.23-8.13,2.98-.75,6.02-1.31,9.07-1.73,2.17-.3,4.39-.22,6.58-.31,3.19-.12,6.37.02,9.52.5,4.7.71,9.3,1.85,13.73,3.57,5.5,2.14,10.65,4.95,15.33,8.55,3.38,2.6,6.53,5.44,9.35,8.68,4.65,5.35,8.39,11.24,11.05,17.8,1.72,4.25,3.08,8.63,3.74,13.18.36,2.49.54,5.01.82,7.52.24,2.14.31,4.27-.07,6.42-.26,1.49-.16,3.03-.34,4.54-.6,4.94-1.78,9.73-3.54,14.4-1.88,4.98-4.41,9.59-7.41,13.97-2.37,3.46-5.19,6.51-8.18,9.42-6,5.85-12.95,10.19-20.75,13.2-4.91,1.9-9.97,3.19-15.2,3.74-1.83.19-3.7.03-5.54.03-.63,0-1.26,0-1.9,0,0,.02,0,.04,0,.06Zm39.86-69.07c2.33-.02,4.04-.71,5.17-2.38,1.82-2.67,1.45-7.06-2.03-9.03-4.84-2.73-9.89-5-15.18-6.68-3.13-1-6.33-1.84-9.53-2.55-3.37-.75-6.78-1.33-10.19-1.88-2.23-.35-4.49-.53-6.73-.74-1.37-.13-2.75-.22-4.13-.24-8.46-.11-16.93-.2-25.3,1.29-3.67.65-7.29,1.62-10.93,2.46-1.2.28-2.09,1.02-3.02,1.82-1.79,1.55-1.84,6.24-.06,8.09,1.85,1.92,3.98,2.23,6.36,1.74,2.63-.54,5.21-1.29,7.85-1.79,2.75-.52,5.53-.96,8.31-1.22,3.18-.29,6.38-.37,9.58-.48,1.26-.04,2.52.11,3.78.18,2.94.17,5.88.25,8.8.54,3.3.32,6.61.67,9.86,1.31,3.66.72,7.29,1.67,10.87,2.72,4.77,1.39,9.31,3.38,13.62,5.86,1.01.58,2.03,1.08,2.91.97Zm-54.51,8.23c1.08,0,2.15-.04,3.23,0,2.77.12,5.55.29,8.32.41,4.62.2,9.13,1.13,13.61,2.19,2.09.49,4.14,1.16,6.16,1.89,2.72.98,5.43,2.02,8.06,3.2,1.93.87,3.73,2.04,5.62,3.02,1.82.95,3.55.54,5.12-.62.54-.4,1.1-.99,1.31-1.6,1.07-3.16.47-5.3-2.24-6.98-6.02-3.74-12.57-6.29-19.37-8.2-4.05-1.13-8.15-2.08-12.35-2.53-2.25-.24-4.47-.67-6.72-.86-1.98-.17-3.98-.2-5.96-.14-3.03.09-6.08-.06-9.1.47-1.74.3-3.51.36-5.26.59-3.67.48-7.26,1.34-10.82,2.34-.84.24-1.7.58-2.4,1.09-1.5,1.1-1.83,2.72-1.72,4.51.18,3.09,2.97,5.2,5.97,4.4,4-1.07,8.01-2.08,12.13-2.52,2.14-.23,4.27-.43,6.41-.64Zm4.93,10.33c0,.07,0,.13,0,.2-1.83,0-3.65-.07-5.48.02-1.81.09-3.62.32-5.43.5-.95.1-1.91.17-2.85.34-3.44.63-6.88,1.28-10.32,1.96-1.2.23-1.97,1.01-2.44,2.12-.41.97-.41,1.94-.24,3,.32,2,2.95,3.18,4.47,2.86,2.39-.51,4.78-1.08,7.19-1.45,3.27-.5,6.56-.92,9.86-1.19,2.16-.18,4.36.09,6.52-.04,2.66-.16,5.26.18,7.88.49,6.65.77,13.02,2.54,19.04,5.46,1.81.88,3.53,1.92,5.31,2.85,2.02,1.05,4.64.07,5.33-1.94.71-2.08.08-4.05-1.71-5.31-.19-.13-.4-.25-.59-.37-3.62-2.23-7.48-3.93-11.47-5.37-5.33-1.92-10.83-3.1-16.45-3.65-2.86-.28-5.74-.33-8.61-.48Z"/><path class="cls-2" d="m47.9,183.58c3.02,3.87,12.46,14.89,28.05,17.68,13.1,2.34,23.47-2.31,28.46-4.62,10-4.63,16.95-11.45,23.12-19.28,18.61-23.64,13.36-34.94,30.49-63.62,12.65-21.18,18.25-19.36,24.47-36.33,3.37-9.19,11.42-31.14,0-50.82-8.48-14.61-23.19-20.21-28.8-22.02h-20.33c6.4,3.39,35,19.39,38.96,47.43,2.26,15.97-4.26,30.24-12.8,48.94-5.01,10.97-6.82,10.68-19.58,33.13-20.54,36.15-31.01,54.53-41.98,55.53-5.45.5-6.51-1.98-20.89-4.33-12.35-2.01-22.62-1.98-29.18-1.68Z"/></g></svg>