<?xml version="1.0" encoding="UTF-8"?><svg id="Layer_2" xmlns="http://www.w3.org/2000/svg" viewBox="2 0 913.24 143.11"><defs><style>.cls-1{fill:#ffb5c2;stroke:#ffb5c2;stroke-miterlimit:10;stroke-width:2px;}</style></defs><g id="ribbon"><path class="cls-1" d="m389.56,109.32c-.05-.2-.16-.37-.16-.37-.08-.13-.18-.24-.3-.34-.1-.08-.2-.14-.31-.19,0,0-.23-.09-.5-.1-.35,0-4.05,3.19-8.96,7.71-1.01.89-2.02,1.74-3.03,2.57-1.01.83-2.13,1.55-3.37,2.19-.31.13-.68.28-1.11.48-.43.19-.83.22-1.22.09-.62-.13-.95-.48-.99-1.05-.04-.57-.02-1.05.06-1.43.39-1.33,1.01-2.6,1.86-3.81.85-1.2,1.7-2.38,2.56-3.52.54-.7,1.09-1.39,1.63-2.09.54-.7,1.05-1.43,1.51-2.19.93-1.27,1.55-2.54,1.86-3.81.15-.63.08-1.24-.23-1.81-.31-.57-.89-.98-1.75-1.24-.7-.25-1.42-.35-2.15-.29-.74.06-1.49.06-2.27,0-.39-.06-.6-.13-.64-.19-.04-.06-.02-.22.06-.48,0-.19.04-.36.12-.52.08-.16.15-.33.23-.52.15-.32.35-.63.58-.95.23-.32.39-.63.47-.95.08-.51-.19-.87-.81-1.09-.62-.22-1.13-.11-1.51.33l-1.75,1.62c-2.29,1.22-4.59,2.39-6.91,3.51C313.47,124.52,205.09,150.15,1.69,20.07c.53,1.85,1.01,3.84,1.4,5.96,1.24,6.71,1.23,12.74.77,17.66,185.09,103.09,297.14,86.73,360.25,59.38,1.82-.79,3.64-1.6,5.45-2.44.31.7.79,1.14,1.45,1.33.66.19,1.38.32,2.15.38.31,0,.93-.01,1.86-.05.93-.03,1.43.11,1.51.43.08.57-.08,1.17-.47,1.81-.39.63-.74,1.21-1.05,1.71-.54.76-1.07,1.49-1.57,2.19-.51.7-1.03,1.4-1.57,2.09-1.01,1.27-2,2.6-2.97,4-.97,1.4-1.61,2.85-1.92,4.38-.08.57-.06,1.14.06,1.71.12.57.35,1.09.7,1.57.35.48.81.84,1.4,1.09.58.26,1.3.35,2.15.29,1.09-.13,2.07-.44,2.97-.95.89-.51,1.76-1.05,2.62-1.62,2.35-1.57,3.72-2.85,3.72-2.85s9.23-7.83,8.96-8.8Z"/><path class="cls-1" d="m408.99,108.89c.47.32.6.65.41,1-.19.35-.41.68-.64,1l-2.09,1.9c-1.01.95-2.02,1.9-3.03,2.85-1.01.95-2.06,1.87-3.14,2.76-.85.7-1.71,1.35-2.56,1.95-.85.6-1.79,1.16-2.79,1.66-.7.32-1.49.6-2.39.86-.89.25-1.73.22-2.5-.1-.62-.25-1.05-.62-1.28-1.09-.23-.48-.39-.97-.47-1.47-.16-1.08-.08-2.12.23-3.14.31-1.01.66-2,1.05-2.95.4-.95.83-1.89,1.29-2.82.28-.57.51-1.01.75-1.47.52-1.01.98-1.83,1.31-2.43-1.39,1.06-2.77,2.13-4.16,3.19-.62.57-1.26.65-1.92.24-.66-.41-.68-.97-.06-1.66l1.75-1.71,7.91-7.42,2.56-2.47c.12-.15.37-.42.76-.52.74-.18,1.59.33,1.66.85.02.17-.03.36-.09.52-.08.19-.17.38-.29.57-.12.19-.25.38-.41.57-1.32,2.03-2.58,4.06-3.78,6.09-1.2,2.03-2.35,4.12-3.43,6.28-.47.89-.89,1.79-1.28,2.71-.39.92-.74,1.86-1.05,2.81-.23.83-.31,1.59-.23,2.28,0,.13.02.35.06.67.04.32.17.48.41.48.31.06.64.03.99-.09.35-.13.64-.25.87-.38.93-.44,1.86-.98,2.79-1.62.93-.7,1.8-1.39,2.62-2.09.81-.7,1.65-1.39,2.5-2.09,1.55-1.39,3.03-2.79,4.42-4.19.39-.32.87-.76,1.45-1.33.58-.57,1.18-.63,1.8-.19Zm-2.79-24.64c-.62-.25-.97-.67-1.05-1.24-.08-.57.04-1.09.35-1.57.31-.48.76-.84,1.34-1.09.58-.25,1.18-.25,1.8,0,.62.32.97.75,1.05,1.28.08.54-.04,1.05-.35,1.52-.31.48-.76.84-1.34,1.09-.58.25-1.18.25-1.8,0Z"/><path class="cls-1" d="m444.24,108.89c.39-.32.83-.41,1.34-.29.5.13.83.41.99.86.08.44-.12.84-.58,1.19-.47.35-.89.68-1.28,1-.78.63-1.57,1.22-2.39,1.76s-1.73,1.03-2.73,1.47c-1.79.7-3.57.92-5.35.67-.54,0-1.09-.1-1.63-.29l-.7-.19c-.23-.06-.35-.08-.35-.05,0,.03-.08.11-.23.24l-2.09,2.38c-1.01,1.08-2.11,2.05-3.32,2.9-1.2.86-2.58,1.54-4.13,2.05-1.4.44-2.85.6-4.36.48-1.51-.13-2.81-.6-3.9-1.43-1.24-.89-1.98-1.97-2.21-3.23s-.27-2.54-.12-3.81c.15-1.39.43-2.79.81-4.19.39-1.39.85-2.76,1.4-4.09l-2.91,2.76c-.23.25-.51.52-.81.81-.31.29-.66.46-1.05.52-.7.06-1.15-.14-1.34-.62-.19-.48-.1-.87.29-1.19l1.75-1.71c.62-.57,1.22-1.14,1.8-1.71.58-.57,1.14-1.14,1.69-1.71l1.98-1.71c.15-.25.47-.57.93-.95.08-.13.13-.29.17-.48.04-.19.13-.35.29-.48,1.24-2.79,2.64-5.68,4.19-8.66,1.32-2.47,2.66-4.95,4.01-7.42,1.36-2.47,2.81-4.92,4.36-7.33.85-1.27,1.76-2.54,2.73-3.81.97-1.27,2.11-2.35,3.43-3.24,1.32-.95,2.71-1.39,4.19-1.33.85.13,1.61.4,2.27.81.66.41,1.14.94,1.45,1.57.23.51.35,1.03.35,1.57s-.08,1.06-.23,1.57c-.31,1.14-.78,2.24-1.4,3.28-.62,1.05-1.32,2.05-2.09,3-.93,1.33-1.94,2.6-3.03,3.81-1.09,1.21-2.21,2.41-3.37,3.62-1.71,1.78-3.47,3.52-5.29,5.23-1.82,1.71-3.63,3.43-5.41,5.14-.62.63-1.24,1.24-1.86,1.81-.62.57-1.24,1.17-1.86,1.81-.16.19-.31.37-.47.52-.16.16-.31.4-.47.71l-.47,1.14c-.16.32-.31.67-.47,1.05-.16.38-.31.76-.47,1.14-.47,1.21-.91,2.43-1.34,3.66-.43,1.24-.76,2.49-.99,3.76-.16,1.02-.27,2.11-.35,3.28-.08,1.17.27,2.21,1.05,3.09.85.95,2.05,1.4,3.61,1.33,1.55-.06,2.87-.38,3.96-.95,1.55-.7,2.91-1.6,4.07-2.71,1.16-1.11,2.17-2.27,3.03-3.47-1.24-.76-2.15-1.73-2.73-2.9-.58-1.17-.95-2.39-1.11-3.66-.16-1.27-.1-2.54.17-3.81.27-1.27.76-2.47,1.45-3.62.31-.44.72-.9,1.22-1.38.5-.48,1.05-.87,1.63-1.19.58-.32,1.22-.51,1.92-.57.7-.06,1.4.03,2.09.29,1.4.63,2.23,1.66,2.5,3.09.27,1.43.33,2.68.17,3.76-.16,1.65-.6,3.24-1.34,4.76-.74,1.52-1.57,3.01-2.5,4.47,1.78.57,3.57.57,5.35,0,1.16-.51,2.25-1.13,3.26-1.86,1.01-.73,1.94-1.51,2.79-2.33Zm-23.38-13.03l4.19-3.9c1.63-1.58,3.24-3.19,4.83-4.8,1.59-1.62,3.12-3.28,4.6-4.99.77-.89,1.51-1.78,2.21-2.66.7-.89,1.36-1.81,1.98-2.76.47-.7.89-1.41,1.28-2.14.39-.73.58-1.47.58-2.24.15-.7,0-1.24-.47-1.62-.7-.51-1.44-.63-2.21-.38-.39.13-.72.29-.99.48-.27.19-.56.41-.87.67-.85.7-1.63,1.51-2.33,2.43-.7.92-1.36,1.82-1.98,2.71-1.79,2.6-3.41,5.23-4.89,7.9-1.47,2.66-2.91,5.36-4.31,8.09l-1.63,3.23Zm9.77,16.17c.85-1.33,1.61-2.73,2.27-4.19.66-1.46,1.06-2.95,1.22-4.47,0-.57-.02-1.19-.06-1.86-.04-.67-.22-1.28-.52-1.86-.47-.76-1.2-.92-2.21-.48-.54.25-.99.59-1.34,1-.35.41-.64.84-.87,1.28-.54,1.21-.89,2.51-1.05,3.9-.08,1.14.06,2.32.41,3.52.35,1.21,1.06,2.25,2.15,3.14Z"/><path class="cls-1" d="m481.35,108.89c.38-.32.83-.41,1.34-.29.5.13.83.41.99.86.08.44-.12.84-.58,1.19-.47.35-.89.68-1.28,1-.78.63-1.57,1.22-2.38,1.76s-1.73,1.03-2.73,1.47c-1.79.7-3.57.92-5.35.67-.54,0-1.09-.1-1.63-.29l-.7-.19c-.23-.06-.35-.08-.35-.05,0,.03-.08.11-.23.24l-2.09,2.38c-1.01,1.08-2.11,2.05-3.31,2.9-1.21.86-2.58,1.54-4.13,2.05-1.39.44-2.85.6-4.36.48-1.51-.13-2.81-.6-3.9-1.43-1.24-.89-1.98-1.97-2.21-3.23-.23-1.27-.27-2.54-.12-3.81.15-1.39.43-2.79.81-4.19.39-1.39.85-2.76,1.4-4.09l-2.91,2.76c-.23.25-.51.52-.81.81-.31.29-.66.46-1.05.52-.7.06-1.15-.14-1.34-.62-.19-.48-.1-.87.29-1.19l1.75-1.71c.62-.57,1.22-1.14,1.8-1.71.58-.57,1.14-1.14,1.69-1.71l1.98-1.71c.15-.25.47-.57.93-.95.08-.13.13-.29.17-.48.04-.19.13-.35.29-.48,1.24-2.79,2.64-5.68,4.19-8.66,1.32-2.47,2.65-4.95,4.01-7.42,1.36-2.47,2.81-4.92,4.36-7.33.85-1.27,1.76-2.54,2.74-3.81.97-1.27,2.11-2.35,3.43-3.24,1.32-.95,2.71-1.39,4.19-1.33.85.13,1.61.4,2.27.81.66.41,1.14.94,1.45,1.57.23.51.35,1.03.35,1.57s-.08,1.06-.23,1.57c-.31,1.14-.78,2.24-1.4,3.28-.62,1.05-1.32,2.05-2.09,3-.93,1.33-1.94,2.6-3.02,3.81-1.09,1.21-2.21,2.41-3.37,3.62-1.71,1.78-3.47,3.52-5.29,5.23-1.82,1.71-3.63,3.43-5.41,5.14-.62.63-1.24,1.24-1.86,1.81-.62.57-1.24,1.17-1.86,1.81-.16.19-.31.37-.47.52-.16.16-.31.4-.47.71l-.47,1.14c-.16.32-.31.67-.47,1.05-.16.38-.31.76-.47,1.14-.47,1.21-.91,2.43-1.34,3.66-.43,1.24-.76,2.49-.99,3.76-.16,1.02-.27,2.11-.35,3.28-.08,1.17.27,2.21,1.05,3.09.85.95,2.05,1.4,3.61,1.33,1.55-.06,2.87-.38,3.96-.95,1.55-.7,2.91-1.6,4.07-2.71,1.16-1.11,2.17-2.27,3.02-3.47-1.24-.76-2.15-1.73-2.73-2.9-.58-1.17-.95-2.39-1.11-3.66-.15-1.27-.1-2.54.18-3.81.27-1.27.75-2.47,1.45-3.62.31-.44.71-.9,1.22-1.38.5-.48,1.05-.87,1.63-1.19.58-.32,1.22-.51,1.92-.57.7-.06,1.4.03,2.09.29,1.4.63,2.23,1.66,2.5,3.09.27,1.43.33,2.68.18,3.76-.16,1.65-.6,3.24-1.34,4.76-.74,1.52-1.57,3.01-2.5,4.47,1.78.57,3.57.57,5.35,0,1.16-.51,2.25-1.13,3.26-1.86,1.01-.73,1.94-1.51,2.79-2.33Zm-23.39-13.03l4.19-3.9c1.63-1.58,3.24-3.19,4.83-4.8,1.59-1.62,3.12-3.28,4.6-4.99.78-.89,1.51-1.78,2.21-2.66.7-.89,1.35-1.81,1.98-2.76.47-.7.89-1.41,1.28-2.14.39-.73.58-1.47.58-2.24.15-.7,0-1.24-.47-1.62-.7-.51-1.44-.63-2.21-.38-.39.13-.72.29-.99.48s-.56.41-.87.67c-.85.7-1.63,1.51-2.33,2.43-.7.92-1.36,1.82-1.98,2.71-1.78,2.6-3.41,5.23-4.88,7.9-1.48,2.66-2.91,5.36-4.31,8.09l-1.63,3.23Zm9.77,16.17c.85-1.33,1.61-2.73,2.27-4.19.66-1.46,1.06-2.95,1.22-4.47,0-.57-.02-1.19-.06-1.86-.04-.67-.22-1.28-.52-1.86-.47-.76-1.2-.92-2.21-.48-.54.25-.99.59-1.34,1-.35.41-.64.84-.87,1.28-.55,1.21-.89,2.51-1.05,3.9-.08,1.14.06,2.32.41,3.52.35,1.21,1.07,2.25,2.15,3.14Z"/><path class="cls-1" d="m516.72,108.89c.62.51.7,1.02.23,1.52-.47.51-.89.92-1.28,1.24l-3.14,2.57c-.85.64-1.78,1.22-2.79,1.76-1.01.54-2.06.97-3.14,1.28-.62.13-1.28.24-1.98.33-.7.1-1.4.08-2.1-.05-.39-.06-.74-.11-1.05-.14-.31-.03-.66-.11-1.05-.24-.47-.13-.82-.25-1.05-.38l-1.05.86c-1.24,1.08-2.6,2.05-4.07,2.9-1.47.86-3.1,1.44-4.89,1.76-1.63.32-3.2.26-4.71-.19-1.51-.44-2.69-1.3-3.55-2.57-.62-1.01-.97-2.11-1.05-3.28-.08-1.17,0-2.3.23-3.38.54-2.35,1.53-4.58,2.97-6.71,1.43-2.12,3.16-4.04,5.18-5.76,1.16-.95,2.4-1.87,3.72-2.76.31-.13.64-.32.99-.57.35-.25.72-.38,1.1-.38.85.13,1.28.51,1.28,1.14-.08.38-.27.67-.58.86-.31.19-.62.38-.93.57-.7.38-1.32.79-1.86,1.24-1.32.89-2.48,1.84-3.49,2.85-.93,1.02-1.78,2.05-2.56,3.09-.78,1.05-1.44,2.17-1.98,3.38-.47.95-.85,1.92-1.16,2.9-.31.98-.43,2.01-.35,3.09.08,1.27.54,2.38,1.4,3.33.85.95,2.13,1.33,3.84,1.14,1.78-.19,3.47-.75,5.06-1.66,1.59-.92,2.97-1.92,4.13-3-1.01-.76-1.75-1.66-2.21-2.71-.47-1.05-.74-2.14-.81-3.28-.08-1.14,0-2.28.23-3.43.23-1.14.54-2.22.93-3.23.39-1.08.93-2.16,1.63-3.23.7-1.08,1.63-1.97,2.79-2.66,1.24-.7,2.54-.97,3.9-.81,1.36.16,2.38.78,3.08,1.86.85,1.27,1.24,2.71,1.16,4.33-.08,1.62-.43,3.09-1.05,4.42-.62,1.46-1.42,2.89-2.38,4.28-.97,1.4-2.04,2.7-3.2,3.9,1.24.38,2.46.48,3.66.28,1.2-.19,2.34-.57,3.43-1.14,1.47-.82,2.79-1.74,3.96-2.76l2.44-2.09c.23-.32.54-.55.93-.71.39-.16.77-.08,1.16.24Zm-17.92,5.14c1.24-1.33,2.29-2.6,3.14-3.81,1.01-1.33,1.82-2.74,2.44-4.23.62-1.49.85-3.06.7-4.71-.08-.51-.2-1.03-.35-1.57-.16-.54-.54-.97-1.16-1.28-.54-.19-1.09-.17-1.63.05-.54.22-1.01.49-1.4.81-1.09.95-1.92,2.08-2.5,3.38-.58,1.3-.99,2.59-1.22,3.85-.23,1.27-.25,2.6-.06,4,.19,1.4.87,2.57,2.04,3.52Z"/><path class="cls-1" d="m575.64,130.16c-5.49-1.46-19.4-5.15-22.32-15.07-1.25-4.24-.1-8.32.97-10.96,0,0,.22-.63.52-1.57.19-.6.31-1.2.35-1.81.04-.6-.06-1.17-.29-1.71-.23-.54-.62-1-1.16-1.38-1.16-.76-2.54-1.01-4.13-.76-1.59.25-2.93.63-4.01,1.14-1.55.7-2.99,1.52-4.31,2.47-1.32.95-2.56,1.97-3.72,3.05-1.4,1.33-2.79,2.76-4.19,4.28.39-.76.72-1.52.99-2.28.27-.76.48-1.52.64-2.28.15-.57.23-1.16.23-1.76s-.08-1.19-.23-1.76c-.39-1.01-1.09-1.71-2.09-2.09-1.01-.38-2.06-.41-3.14-.09-1.09.32-2.06.73-2.91,1.24-.85.51-1.71,1.08-2.56,1.71-.93.7-1.82,1.41-2.68,2.14-.85.73-1.71,1.47-2.56,2.24l-3.49,3.62c-.08.13-.16.24-.23.33-.08.1-.16.21-.23.33-.23.25-.27.52-.11.81.15.28.42.49.81.62.39.13.72.11.99-.05.27-.16.52-.36.76-.62l1.75-1.9c1.09-1.08,2.23-2.16,3.43-3.24,1.2-1.08,2.46-2.09,3.78-3.04,1.01-.7,2.02-1.33,3.02-1.9.39-.13.77-.24,1.16-.33.39-.1.77-.08,1.16.05.39.19.62.46.7.81.08.35.08.68,0,1,0,.83-.12,1.62-.35,2.38-.31,1.08-.7,2.11-1.16,3.09-.47.98-.93,1.95-1.4,2.9-.85,1.65-1.76,3.28-2.73,4.9-.97,1.62-1.96,3.25-2.97,4.9l-.93,1.71c-.39.63-.2,1.08.58,1.33.39.13.77.13,1.16,0,.39-.13.66-.32.81-.57.47-.51.87-1.05,1.22-1.62.35-.57.72-1.11,1.1-1.62,1.24-1.78,2.52-3.5,3.84-5.19,1.32-1.68,2.71-3.34,4.19-4.99,1.47-1.65,3.06-3.25,4.77-4.8,1.71-1.55,3.68-2.81,5.93-3.76.39-.19.82-.36,1.28-.52.47-.16.93-.27,1.4-.33.39-.13.87-.2,1.45-.24.58-.03,1.06.11,1.45.43.13.15.31.39.4.72.17.62-.08,1.19-.16,1.37-.58,1.36-2.7,7.61-2.8,11.66,0,0-.04,1.66.6,4.21.35,1.41,9.91,13.15,23.48,17.38,56.29,17.56,117.64-1.75,117.64-1.75,92.71-29.17,180.66-74.56,221.96-96.91.29-11.39.59-22.78.88-34.17-72.41,48.32-136.51,81.28-184.97,103.41,0,0-90.85,41.49-153.58,24.85Z"/></g></svg>