<?xml version="1.0" encoding="UTF-8"?><svg id="Layer_2" xmlns="http://www.w3.org/2000/svg" viewBox="10 0 307.38 114.17"><defs><style>.cls-1{fill:#ffb5c2;stroke:#ffb5c2;stroke-miterlimit:10;stroke-width:2px;}</style></defs><g id="ribbon"><path class="cls-1" d="m120.9,104.56c.16,0,.28.05.28.05.06.03.12.06.18.11.13.11.22.24.26.4.04.16-.02.31-.2.46l-.66.65-2.3,2.1c-.61.61-1.25,1.2-1.91,1.77-.66.57-1.36,1.11-2.1,1.61-.48.32-.98.63-1.48.91-.5.29-1.06.47-1.68.54-.48.04-.89-.02-1.22-.16-.33-.14-.59-.35-.79-.62-.2-.27-.33-.56-.39-.89-.07-.32-.08-.65-.03-.97.17-.86.54-1.68,1.08-2.47.55-.79,1.11-1.54,1.68-2.26.31-.39.6-.79.89-1.18.28-.39.58-.81.89-1.24.17-.29.37-.61.59-.97.22-.36.31-.7.26-1.02-.04-.18-.33-.26-.85-.24-.53.02-.88.03-1.05.03-.44-.04-.84-.11-1.22-.22-.37-.11-.65-.36-.82-.75-.69.36-1.75.87-3.08,1.38-20.95,8.02-45.4-9.57-59.44-19.67-3.43-2.47-41.33-30.32-46.12-62.12-.32-2.14-1.48-9.8.19-10.35,2.37-.78,8.86,13.39,11.86,19.39,19.94,39.86,67.22,81.11,92.61,71.53,1-.38,2.36-.98,3.91-1.98l.99-.91c.22-.25.5-.31.85-.19.35.13.5.33.46.62-.04.18-.13.36-.26.54-.13.18-.24.36-.33.54-.04.11-.09.21-.13.3-.04.09-.07.19-.07.3-.04.14-.06.23-.03.27.02.04.14.07.36.11.44.04.86.04,1.28,0,.42-.04.82.02,1.22.16.48.14.81.38.99.7.17.32.22.66.13,1.02-.18.72-.53,1.43-1.05,2.15-.26.43-.55.84-.85,1.24-.31.39-.61.79-.92,1.18-.48.65-.96,1.31-1.45,1.99-.48.68-.83,1.4-1.05,2.15-.04.21-.06.48-.03.81.02.32.21.52.56.59.22.07.45.05.69-.05.24-.11.45-.2.62-.27.7-.36,1.34-.77,1.91-1.24.57-.47,1.14-.95,1.71-1.45,2.77-2.55,4.86-4.35,5.06-4.35Z"/><path class="cls-1" d="m132.59,104.89c.26.18.34.37.23.56-.11.2-.23.39-.36.56l-1.18,1.07c-.57.54-1.14,1.07-1.71,1.61-.57.54-1.16,1.06-1.77,1.56-.48.39-.96.76-1.45,1.1-.48.34-1.01.65-1.58.94-.39.18-.84.34-1.35.48-.5.14-.98.13-1.41-.05-.35-.14-.59-.35-.72-.62s-.22-.55-.26-.83c-.09-.61-.04-1.2.13-1.77.17-.57.37-1.13.59-1.67.35-.82.73-1.63,1.15-2.42.42-.79.86-1.59,1.35-2.42l-2.96,2.85c-.35.32-.71.37-1.08.13-.37-.23-.38-.55-.03-.94l.99-.97,4.47-4.19,1.45-1.4c.22-.25.48-.36.79-.32.22.07.38.18.49.32.11.14.12.3.03.48-.04.11-.1.22-.16.32-.07.11-.14.21-.23.32-.75,1.15-1.46,2.29-2.14,3.44-.68,1.15-1.33,2.33-1.94,3.55-.26.5-.5,1.01-.72,1.53-.22.52-.42,1.05-.59,1.59-.13.47-.18.9-.13,1.29,0,.07.01.2.03.38.02.18.1.27.23.27.17.04.36.02.56-.05.2-.07.36-.14.49-.22.53-.25,1.05-.55,1.58-.91.53-.39,1.02-.79,1.48-1.18.46-.39.93-.79,1.41-1.18.88-.79,1.71-1.58,2.5-2.36.22-.18.49-.43.82-.75.33-.32.67-.36,1.02-.11Zm-1.58-13.92c-.35-.14-.55-.38-.59-.7-.04-.32.02-.62.2-.89.17-.27.43-.47.76-.62.33-.14.67-.14,1.02,0,.35.18.55.42.59.73.04.3-.02.59-.2.86-.18.27-.43.48-.76.62-.33.14-.67.14-1.02,0Z"/><path class="cls-1" d="m152.5,104.89c.22-.18.47-.23.76-.16.28.07.47.23.56.48.04.25-.07.47-.33.67-.26.2-.5.39-.72.56-.44.36-.89.69-1.35.99s-.98.58-1.54.83c-1.01.39-2.02.52-3.02.38-.31,0-.61-.05-.92-.16l-.39-.11c-.13-.04-.2-.04-.2-.03,0,.02-.04.06-.13.13l-1.18,1.34c-.57.61-1.19,1.16-1.87,1.64-.68.48-1.46.87-2.33,1.16-.79.25-1.61.34-2.46.27-.85-.07-1.59-.34-2.2-.81-.7-.5-1.12-1.11-1.25-1.83s-.15-1.43-.07-2.15c.09-.79.24-1.58.46-2.36.22-.79.48-1.56.79-2.31l-1.64,1.56c-.13.14-.29.3-.46.46-.18.16-.37.26-.59.3-.39.04-.65-.08-.76-.35-.11-.27-.06-.49.16-.67l.99-.97c.35-.32.69-.65,1.02-.97.33-.32.65-.64.95-.97l1.12-.97c.09-.14.26-.32.53-.54.04-.07.08-.16.1-.27.02-.11.08-.2.16-.27.7-1.58,1.49-3.21,2.37-4.89.74-1.4,1.5-2.79,2.27-4.19.77-1.4,1.59-2.78,2.46-4.14.48-.72,1-1.43,1.54-2.15.55-.72,1.19-1.33,1.94-1.83.74-.54,1.53-.79,2.37-.75.48.07.91.22,1.28.46.37.23.65.53.82.89.13.29.2.58.2.89s-.04.6-.13.89c-.18.64-.44,1.26-.79,1.85-.35.59-.75,1.16-1.18,1.69-.53.75-1.1,1.47-1.71,2.15-.61.68-1.25,1.36-1.91,2.04-.96,1-1.96,1.99-2.99,2.96-1.03.97-2.05,1.93-3.06,2.9-.35.36-.7.7-1.05,1.02-.35.32-.7.66-1.05,1.02-.09.11-.18.21-.26.3-.09.09-.18.22-.26.4l-.26.64c-.09.18-.18.38-.26.59-.09.21-.18.43-.26.64-.26.68-.52,1.37-.76,2.07-.24.7-.43,1.41-.56,2.12-.09.57-.15,1.19-.2,1.85-.04.66.15,1.25.59,1.75.48.54,1.16.79,2.04.75.88-.03,1.62-.21,2.23-.54.88-.39,1.64-.9,2.3-1.53.66-.63,1.23-1.28,1.71-1.96-.7-.43-1.22-.98-1.54-1.64-.33-.66-.54-1.35-.62-2.07-.09-.72-.06-1.43.1-2.15.15-.72.43-1.4.82-2.04.17-.25.4-.51.69-.78.28-.27.59-.49.92-.67.33-.18.69-.29,1.08-.32.39-.03.79.02,1.18.16.79.36,1.26.94,1.41,1.75.15.81.19,1.51.1,2.12-.09.93-.34,1.83-.76,2.69-.42.86-.89,1.7-1.41,2.53,1.01.32,2.01.32,3.02,0,.66-.29,1.27-.64,1.84-1.05.57-.41,1.09-.85,1.58-1.32Zm-13.21-7.36l2.37-2.2c.92-.89,1.83-1.8,2.73-2.71.9-.91,1.76-1.85,2.6-2.82.44-.5.85-1,1.25-1.5.39-.5.77-1.02,1.12-1.56.26-.39.5-.8.72-1.21.22-.41.33-.83.33-1.26.09-.39,0-.7-.26-.91-.39-.29-.81-.36-1.25-.22-.22.07-.41.16-.56.27-.15.11-.32.23-.49.38-.48.39-.92.85-1.31,1.37-.39.52-.77,1.03-1.12,1.53-1.01,1.47-1.93,2.96-2.76,4.46-.83,1.5-1.64,3.03-2.43,4.57l-.92,1.83Zm5.52,9.13c.48-.75.91-1.54,1.28-2.36.37-.82.6-1.67.69-2.53,0-.32-.01-.67-.03-1.05-.02-.38-.12-.73-.3-1.05-.26-.43-.68-.52-1.25-.27-.31.14-.56.33-.76.56-.2.23-.36.48-.49.73-.31.68-.5,1.42-.59,2.2-.04.64.03,1.31.23,1.99.2.68.6,1.27,1.22,1.77Z"/><path class="cls-1" d="m173.46,104.89c.22-.18.47-.23.75-.16.28.07.47.23.56.48.04.25-.07.47-.33.67-.26.2-.5.39-.72.56-.44.36-.89.69-1.35.99s-.98.58-1.54.83c-1.01.39-2.02.52-3.02.38-.31,0-.61-.05-.92-.16l-.4-.11c-.13-.04-.2-.04-.2-.03,0,.02-.04.06-.13.13l-1.18,1.34c-.57.61-1.19,1.16-1.87,1.64-.68.48-1.46.87-2.33,1.16-.79.25-1.61.34-2.46.27-.85-.07-1.59-.34-2.2-.81-.7-.5-1.12-1.11-1.25-1.83s-.15-1.43-.07-2.15c.09-.79.24-1.58.46-2.36.22-.79.48-1.56.79-2.31l-1.64,1.56c-.13.14-.29.3-.46.46-.18.16-.37.26-.59.3-.39.04-.65-.08-.76-.35-.11-.27-.06-.49.16-.67l.99-.97c.35-.32.69-.65,1.02-.97.33-.32.65-.64.95-.97l1.12-.97c.09-.14.26-.32.53-.54.04-.07.08-.16.1-.27.02-.11.08-.2.16-.27.7-1.58,1.49-3.21,2.37-4.89.74-1.4,1.5-2.79,2.27-4.19.77-1.4,1.59-2.78,2.46-4.14.48-.72,1-1.43,1.55-2.15.55-.72,1.19-1.33,1.94-1.83.74-.54,1.53-.79,2.36-.75.48.07.91.22,1.28.46.37.23.65.53.82.89.13.29.2.58.2.89s-.04.6-.13.89c-.17.64-.44,1.26-.79,1.85-.35.59-.74,1.16-1.18,1.69-.53.75-1.1,1.47-1.71,2.15-.61.68-1.25,1.36-1.91,2.04-.96,1-1.96,1.99-2.99,2.96-1.03.97-2.05,1.93-3.06,2.9-.35.36-.7.7-1.05,1.02-.35.32-.7.66-1.05,1.02-.09.11-.18.21-.26.3-.09.09-.18.22-.26.4l-.26.64c-.09.18-.18.38-.26.59-.09.21-.18.43-.26.64-.26.68-.52,1.37-.76,2.07-.24.7-.43,1.41-.56,2.12-.09.57-.15,1.19-.2,1.85-.04.66.15,1.25.59,1.75.48.54,1.16.79,2.04.75.88-.03,1.62-.21,2.23-.54.88-.39,1.64-.9,2.3-1.53.66-.63,1.23-1.28,1.71-1.96-.7-.43-1.21-.98-1.54-1.64-.33-.66-.54-1.35-.62-2.07-.09-.72-.05-1.43.1-2.15.15-.72.43-1.4.82-2.04.17-.25.4-.51.69-.78.28-.27.59-.49.92-.67.33-.18.69-.29,1.08-.32.4-.03.79.02,1.18.16.79.36,1.26.94,1.41,1.75.15.81.19,1.51.1,2.12-.09.93-.34,1.83-.76,2.69-.42.86-.89,1.7-1.41,2.53,1.01.32,2.02.32,3.02,0,.66-.29,1.27-.64,1.84-1.05.57-.41,1.1-.85,1.58-1.32Zm-13.21-7.36l2.37-2.2c.92-.89,1.83-1.8,2.73-2.71.9-.91,1.76-1.85,2.6-2.82.44-.5.85-1,1.25-1.5.39-.5.76-1.02,1.12-1.56.26-.39.5-.8.72-1.21.22-.41.33-.83.33-1.26.09-.39,0-.7-.26-.91-.39-.29-.81-.36-1.25-.22-.22.07-.41.16-.56.27s-.32.23-.49.38c-.48.39-.92.85-1.31,1.37-.39.52-.77,1.03-1.12,1.53-1.01,1.47-1.93,2.96-2.76,4.46-.83,1.5-1.64,3.03-2.43,4.57l-.92,1.83Zm5.52,9.13c.48-.75.91-1.54,1.28-2.36.37-.82.6-1.67.69-2.53,0-.32-.01-.67-.03-1.05-.02-.38-.12-.73-.3-1.05-.26-.43-.68-.52-1.25-.27-.31.14-.56.33-.75.56-.2.23-.36.48-.49.73-.31.68-.5,1.42-.59,2.2-.04.64.03,1.31.23,1.99.2.68.6,1.27,1.22,1.77Z"/><path class="cls-1" d="m193.43,104.89c.35.29.39.57.13.86-.26.29-.5.52-.72.7l-1.77,1.45c-.48.36-1.01.69-1.58.99-.57.31-1.16.55-1.77.73-.35.07-.72.13-1.12.19-.39.05-.79.05-1.18-.03-.22-.03-.42-.06-.59-.08-.18-.02-.37-.06-.59-.13-.26-.07-.46-.14-.59-.21l-.59.48c-.7.61-1.47,1.16-2.3,1.64-.83.48-1.75.82-2.76.99-.92.18-1.81.14-2.66-.11-.85-.25-1.52-.73-2-1.45-.35-.57-.55-1.19-.59-1.85-.04-.66,0-1.3.13-1.91.31-1.33.86-2.59,1.68-3.79.81-1.2,1.78-2.28,2.92-3.25.66-.54,1.36-1.06,2.1-1.56.17-.07.36-.18.56-.32.2-.14.4-.22.62-.22.48.07.72.29.72.65-.04.21-.15.38-.33.48-.18.11-.35.21-.53.32-.39.21-.75.45-1.05.7-.75.5-1.4,1.04-1.97,1.61-.53.57-1.01,1.16-1.45,1.75-.44.59-.81,1.23-1.12,1.91-.26.54-.48,1.08-.66,1.64-.18.56-.24,1.14-.2,1.75.04.72.31,1.34.79,1.88.48.54,1.2.75,2.17.65,1.01-.11,1.96-.42,2.86-.94.9-.52,1.68-1.08,2.33-1.69-.57-.43-.99-.94-1.25-1.53-.26-.59-.42-1.21-.46-1.85-.04-.64,0-1.29.13-1.93.13-.64.31-1.25.53-1.83.22-.61.53-1.22.92-1.83.39-.61.92-1.11,1.58-1.5.7-.39,1.43-.55,2.2-.46.77.09,1.35.44,1.74,1.05.48.72.7,1.53.66,2.44s-.24,1.75-.59,2.5c-.35.82-.8,1.63-1.35,2.42-.55.79-1.15,1.52-1.81,2.2.7.21,1.39.27,2.07.16.68-.11,1.32-.32,1.94-.65.83-.46,1.58-.98,2.23-1.56l1.38-1.18c.13-.18.31-.31.53-.4.22-.09.44-.04.66.13Zm-10.12,2.9c.7-.75,1.29-1.47,1.77-2.15.57-.75,1.03-1.55,1.38-2.39.35-.84.48-1.73.39-2.66-.04-.29-.11-.58-.2-.89-.09-.3-.31-.55-.66-.73-.31-.11-.61-.1-.92.03-.31.13-.57.28-.79.46-.61.54-1.08,1.17-1.41,1.91-.33.73-.56,1.46-.69,2.18-.13.72-.14,1.47-.03,2.26.11.79.49,1.45,1.15,1.99Z"/><path class="cls-1" d="m323.38,1.07c3.23,1.03,4.82,13.31-.28,21.46-.26.41-.47.71-.56.85-11.14,15.73-68.75,73.05-99.32,84.21-4.66,1.7-10.99,3.17-12,1.41-.47-.83-.03-2.82.51-4.04.16-.37.68-1.37,1.15-2.34.35-.72.59-1.36.72-1.93.04-.18.08-.38.1-.59.02-.22-.05-.41-.23-.59-.22-.18-.49-.26-.82-.24-.33.02-.6.06-.82.13-.26.04-.53.1-.79.19-.26.09-.5.19-.72.3-1.27.54-2.39,1.25-3.35,2.12-.96.88-1.86,1.78-2.69,2.71-.83.93-1.62,1.87-2.37,2.82-.75.95-1.47,1.93-2.17,2.93-.22.29-.43.59-.62.91-.2.32-.43.63-.69.91-.09.14-.24.25-.46.32-.22.07-.44.07-.66,0-.44-.14-.55-.39-.33-.75l.53-.97c.57-.93,1.13-1.85,1.68-2.77.55-.91,1.06-1.84,1.54-2.77.26-.54.53-1.08.79-1.64.26-.56.48-1.14.66-1.75.13-.43.2-.88.2-1.34.04-.18.04-.37,0-.56-.04-.2-.18-.35-.39-.46-.22-.07-.44-.08-.66-.03-.22.05-.44.12-.66.19-.57.32-1.14.68-1.71,1.07-.75.54-1.46,1.11-2.14,1.72-.68.61-1.33,1.22-1.94,1.83l-.99,1.08c-.13.14-.27.26-.43.35-.15.09-.34.1-.56.03-.22-.07-.37-.19-.46-.35-.09-.16-.07-.31.07-.46.04-.07.09-.13.13-.19.04-.05.09-.12.13-.19l1.97-2.04c.48-.43.96-.85,1.45-1.26.48-.41.99-.81,1.51-1.21.48-.36.96-.68,1.44-.97.48-.29,1.03-.52,1.64-.7.61-.18,1.2-.16,1.77.05.57.22.96.61,1.18,1.18.09.32.13.65.13.99s-.04.67-.13.99c-.09.43-.21.86-.36,1.29-.15.43-.34.86-.56,1.29.79-.86,1.58-1.67,2.37-2.42.66-.61,1.36-1.18,2.1-1.72.74-.54,1.55-1,2.43-1.4.61-.29,1.37-.5,2.27-.64.9-.14,1.68,0,2.33.43.31.22.53.48.66.78.13.3.19.63.16.97-.02.34-.09.68-.2,1.02-.11.34-.21.64-.3.89-.36,1.02-.96,2.03-1.18,2.5-.34.71-1.02,2.51-.58,3.2.93,1.48,7.7-1.08,9.98-2.07,45.35-19.85,83.29-81.32,83.29-81.32C314.62,10.8,320.05,0,323.38,1.07Z"/></g></svg>